<svg width="32" height="32" viewBox="0 0 32 32" fill="none" xmlns="http://www.w3.org/2000/svg">
<path d="M16 2.66669C8.64796 2.66669 2.66663 8.64802 2.66663 16C2.66663 23.352 8.64796 29.3334 16 29.3334C23.352 29.3334 29.3333 23.352 29.3333 16C29.3333 8.64802 23.352 2.66669 16 2.66669ZM26.5746 14.6667H22.8893C22.7248 11.7483 21.9084 8.90397 20.5 6.34269C22.1322 7.10542 23.5451 8.26855 24.6072 9.7239C25.6693 11.1793 26.3461 12.8796 26.5746 14.6667ZM16.7066 5.36935C18.0866 7.18802 19.9426 10.4094 20.2093 14.6667H12.04C12.2253 11.2054 13.3653 7.96269 15.308 5.36802C15.5373 5.35469 15.7666 5.33335 16 5.33335C16.2386 5.33335 16.472 5.35469 16.7066 5.36935ZM11.584 6.30269C10.272 8.82402 9.51463 11.6827 9.37329 14.6667H5.42529C5.65565 12.8638 6.34214 11.1495 7.41982 9.68591C8.49749 8.22233 9.93073 7.05787 11.584 6.30269ZM5.42529 17.3334H9.39063C9.57196 20.5054 10.2773 23.304 11.4653 25.64C9.84155 24.8746 8.43693 23.7123 7.38124 22.2604C6.32555 20.8085 5.65284 19.114 5.42529 17.3334ZM15.2666 26.6307C13.3986 24.3667 12.296 21.1947 12.0546 17.3334H20.2053C19.928 21.0307 18.716 24.2614 16.7346 26.6294C16.492 26.6454 16.2493 26.6667 16 26.6667C15.752 26.6667 15.5106 26.6454 15.2666 26.6307ZM20.6146 25.6014C21.888 23.2094 22.6653 20.4 22.8693 17.3334H26.5733C26.3483 19.0991 25.6852 20.7804 24.6445 22.2245C23.6038 23.6685 22.2185 24.8294 20.6146 25.6014Z" fill="black"/>
</svg>
