<svg width="32" height="32" viewBox="0 0 32 32" fill="none" xmlns="http://www.w3.org/2000/svg">
<path d="M8.68799 19.0974L6.70133 27.7C6.63981 27.9605 6.65828 28.2335 6.75432 28.4833C6.85036 28.7332 7.01952 28.9482 7.23969 29.1004C7.45986 29.2526 7.72081 29.3349 7.98846 29.3365C8.25612 29.3381 8.51803 29.2589 8.73999 29.1094L16 24.2694L23.26 29.1094C23.4871 29.2601 23.755 29.3378 24.0275 29.3318C24.3001 29.3258 24.5642 29.2365 24.7845 29.0759C25.0048 28.9153 25.1706 28.6911 25.2597 28.4334C25.3487 28.1758 25.3568 27.897 25.2827 27.6347L22.844 19.1014L28.892 13.6587C29.0857 13.4843 29.224 13.2569 29.2899 13.0047C29.3557 12.7525 29.3462 12.4865 29.2625 12.2397C29.1788 11.9928 29.0246 11.7759 28.8189 11.6158C28.6133 11.4557 28.3652 11.3593 28.1053 11.3387L20.504 10.7334L17.2147 3.45202C17.1098 3.21756 16.9393 3.01847 16.7237 2.87877C16.5082 2.73907 16.2568 2.66473 16 2.66473C15.7431 2.66473 15.4918 2.73907 15.2762 2.87877C15.0607 3.01847 14.8902 3.21756 14.7853 3.45202L11.496 10.7334L3.89466 11.3374C3.63927 11.3576 3.39511 11.451 3.1914 11.6063C2.98769 11.7617 2.83305 11.9725 2.74599 12.2134C2.65892 12.4543 2.64311 12.7153 2.70045 12.965C2.7578 13.2147 2.88586 13.4425 3.06933 13.6214L8.68799 19.0974ZM12.492 13.3294C12.73 13.3106 12.9586 13.2282 13.1537 13.0907C13.3489 12.9532 13.5035 12.7658 13.6013 12.548L16 7.24002L18.3987 12.548C18.4965 12.7658 18.6511 12.9532 18.8463 13.0907C19.0414 13.2282 19.27 13.3106 19.508 13.3294L24.804 13.7494L20.4427 17.6747C20.064 18.016 19.9133 18.5414 20.052 19.032L21.7227 24.8787L16.7413 21.5574C16.5227 21.4106 16.2653 21.3322 16.002 21.3322C15.7387 21.3322 15.4813 21.4106 15.2627 21.5574L10.0573 25.028L11.4573 18.9667C11.5087 18.7438 11.5018 18.5114 11.4373 18.2919C11.3729 18.0724 11.253 17.8731 11.0893 17.7134L7.03866 13.764L12.492 13.3294Z" fill="black"/>
</svg>
