<svg width="32" height="32" viewBox="0 0 32 32" fill="none" xmlns="http://www.w3.org/2000/svg">
<path d="M24.9734 7.21332L23.2667 8.54665L16.0001 13.9467L8.73339 8.49332L7.02672 7.15998C6.62466 6.82738 6.13386 6.62004 5.61511 6.56365C5.09636 6.50727 4.57247 6.60431 4.10834 6.84276C3.6442 7.08122 3.26023 7.4506 3.00398 7.90515C2.74773 8.3597 2.63047 8.87944 2.66672 9.39999V24.8533C2.66672 25.3342 2.85777 25.7955 3.19784 26.1355C3.5379 26.4756 3.99913 26.6667 4.48006 26.6667H8.73339V16.3733L16.0001 21.8267L23.2667 16.3733V26.6667H27.5201C28.001 26.6667 28.4622 26.4756 28.8023 26.1355C29.1423 25.7955 29.3334 25.3342 29.3334 24.8533V9.39999C29.3584 8.88393 29.233 8.37172 28.9724 7.92561C28.7118 7.47951 28.3272 7.11871 27.8653 6.88709C27.4035 6.65547 26.8843 6.563 26.3709 6.62091C25.8575 6.67883 25.372 6.88463 24.9734 7.21332Z" fill="black"/>
</svg>
