<svg width="32" height="32" viewBox="0 0 32 32" fill="none" xmlns="http://www.w3.org/2000/svg">
<path fill-rule="evenodd" clip-rule="evenodd" d="M9.38525 24V18.9091H11.4882C11.8694 18.9091 12.1983 18.9837 12.4751 19.1328C12.7535 19.2803 12.9681 19.4867 13.1189 19.7518C13.2697 20.0153 13.3451 20.3219 13.3451 20.6715C13.3451 21.0229 13.2681 21.3303 13.1139 21.5938C12.9615 21.8556 12.7436 22.0586 12.4602 22.2028C12.1768 22.347 11.8404 22.4191 11.451 22.4191H10.6157V24H9.38525ZM11.2223 21.4496H10.6157V19.901H11.2223C11.4062 19.901 11.5612 19.9324 11.6871 19.9954C11.813 20.0584 11.9083 20.1479 11.973 20.2639C12.0376 20.3782 12.0699 20.5141 12.0699 20.6715C12.0699 20.8273 12.0376 20.964 11.973 21.0817C11.9083 21.1977 11.813 21.288 11.6871 21.3527C11.5628 21.4173 11.4079 21.4496 11.2223 21.4496Z" fill="black"/>
<path fill-rule="evenodd" clip-rule="evenodd" d="M15.8334 24H13.9517V18.9091H15.8309C16.3496 18.9091 16.7962 19.011 17.1708 19.2149C17.547 19.417 17.837 19.7087 18.0408 20.0899C18.2446 20.4694 18.3465 20.9234 18.3465 21.4521C18.3465 21.9824 18.2446 22.4381 18.0408 22.8193C17.8386 23.2004 17.5494 23.4929 17.1733 23.6968C16.7971 23.8989 16.3505 24 15.8334 24ZM15.1821 22.951H15.7862C16.0712 22.951 16.3123 22.903 16.5095 22.8068C16.7084 22.7091 16.8584 22.5508 16.9595 22.3321C17.0622 22.1117 17.1136 21.8183 17.1136 21.4521C17.1136 21.0858 17.0622 20.7942 16.9595 20.5771C16.8567 20.3583 16.7051 20.2009 16.5046 20.1048C16.3057 20.007 16.0604 19.9581 15.7688 19.9581H15.1821V22.951Z" fill="black"/>
<path d="M19.0649 18.9091V24H20.2954V21.9542H22.3188V20.9524H20.2954V19.9084H22.5401V18.9091H19.0649Z" fill="black"/>
<path fill-rule="evenodd" clip-rule="evenodd" d="M26.276 11.0574C26.3857 11.171 26.4742 11.3033 26.5374 11.448C26.5539 11.4834 26.5652 11.5199 26.5768 11.5574C26.5783 11.5622 26.5798 11.5671 26.5814 11.572C26.62 11.6834 26.6429 11.7996 26.6494 11.9174C26.6506 11.9309 26.6544 11.9435 26.6581 11.956C26.6624 11.9706 26.6667 11.9849 26.6667 12V26.6667C26.6667 28.1374 25.4707 29.3334 24 29.3334H8.00004C6.52937 29.3334 5.33337 28.1374 5.33337 26.6667V5.33335C5.33337 3.86269 6.52937 2.66669 8.00004 2.66669H17.3334C17.3487 2.66669 17.3632 2.67108 17.3778 2.67549C17.3899 2.67914 17.402 2.68281 17.4147 2.68402C17.5323 2.69119 17.6485 2.71406 17.76 2.75202C17.7733 2.75659 17.7866 2.76077 17.7998 2.76493C17.829 2.77411 17.8578 2.78317 17.8854 2.79602C18.0301 2.85924 18.1624 2.94773 18.276 3.05735L26.276 11.0574ZM18.6667 10.6667H22.1147L18.6667 7.21869V10.6667ZM8.00004 5.33335V26.6667H24.0027L24 13.3334H17.3334C16.9798 13.3334 16.6406 13.1929 16.3906 12.9428C16.1405 12.6928 16 12.3536 16 12V5.33335H8.00004Z" fill="black"/>
</svg>
