<svg width="32" height="32" viewBox="0 0 32 32" fill="none" xmlns="http://www.w3.org/2000/svg">
<path d="M25.3333 9.33335H24V2.66669H7.99996V9.33335H6.66663C4.46129 9.33335 2.66663 11.128 2.66663 13.3334V22.6667C2.66663 24.1374 3.86263 25.3334 5.33329 25.3334H7.99996V29.3334H24V25.3334H26.6666C28.1373 25.3334 29.3333 24.1374 29.3333 22.6667V13.3334C29.3333 11.128 27.5386 9.33335 25.3333 9.33335ZM10.6666 5.33335H21.3333V9.33335H10.6666V5.33335ZM21.3333 26.6667H10.6666V21.3334H21.3333V26.6667ZM26.6666 22.6667H24V18.6667H7.99996V22.6667H5.33329V13.3334C5.33329 12.5987 5.93196 12 6.66663 12H25.3333C26.0693 12 26.6666 12.5987 26.6666 13.3334V22.6667Z" fill="black"/>
<path d="M18.6666 13.3333H24V16H18.6666V13.3333Z" fill="black"/>
</svg>
