<svg width="18" height="24" viewBox="0 0 18 24" fill="none" xmlns="http://www.w3.org/2000/svg">
<path d="M8.99995 0C4.03734 0 0 4.00679 0 8.93181C0 11.6867 1.42917 15.0304 4.24793 18.8701C6.31072 21.6802 8.3434 23.6843 8.42894 23.7683C8.58616 23.9226 8.79301 24 9.0001 24C9.20117 24 9.40239 23.927 9.55837 23.7805C9.6441 23.7 11.6819 21.777 13.7486 19.0058C16.5696 15.2229 18 11.8336 18 8.93177C17.9999 4.00679 13.9625 0 8.99995 0ZM8.99995 12.7878C6.57377 12.7878 4.59999 10.8635 4.59999 8.49822C4.59999 6.13295 6.57382 4.20863 8.99995 4.20863C11.4261 4.20863 13.3999 6.13295 13.3999 8.49822C13.3999 10.8635 11.426 12.7878 8.99995 12.7878Z" fill="white"/>
</svg>
