<?xml version="1.0" encoding="utf-8"?>
<!-- Generator: Adobe Illustrator 24.1.0, SVG Export Plug-In . SVG Version: 6.00 Build 0)  -->
<svg version="1.1" id="Capa_1" xmlns="http://www.w3.org/2000/svg" xmlns:xlink="http://www.w3.org/1999/xlink" x="0px" y="0px"
	 viewBox="0 0 512 512" style="enable-background:new 0 0 512 512;" xml:space="preserve">
<style type="text/css">
	.st0{fill:#C4C4C4;}
</style>
<path class="st0" d="M404.1,368.4L512,476.3L476.3,512L368.4,404c-40.2,32.2-90.1,49.7-141.6,49.6C101.6,453.7,0,352.1,0,226.8
	S101.6,0,226.8,0s226.8,101.6,226.8,226.8C453.8,278.3,436.2,328.3,404.1,368.4z M353.5,349.7c32-32.9,49.9-77,49.8-122.9
	c0-97.5-79-176.4-176.4-176.4c-97.5,0-176.4,78.9-176.4,176.4c0,97.5,78.9,176.4,176.4,176.4c45.9,0.1,90-17.8,122.9-49.8
	C349.7,353.5,353.5,349.7,353.5,349.7z"/>
</svg>
