<?xml version="1.0" standalone="no"?>
<!DOCTYPE svg PUBLIC "-//W3C//DTD SVG 1.1//EN" "http://www.w3.org/Graphics/SVG/1.1/DTD/svg11.dtd" >
<svg xmlns="http://www.w3.org/2000/svg">
<defs>
  <font id="inmovilla" horiz-adv-x="256">
    <font-face font-family="inmovilla"
      units-per-em="256" ascent="256"
      descent="0" />
    <missing-glyph horiz-adv-x="0" />
    <glyph glyph-name="000001-icAdd"
      unicode="&#xEA01;"
      horiz-adv-x="256" d="M128 213.336C80.88 213.336 42.664 175.12 42.664 128S80.88 42.664 128 42.664S213.336 80.88 213.336 128S175.12 213.336 128 213.336zM21.336 128C21.336 186.912 69.096 234.664 128 234.664C186.912 234.664 234.664 186.904 234.664 128C234.664 69.088 186.904 21.336 128 21.336C69.088 21.336 21.336 69.096 21.336 128zM128 85.336A10.664 10.664 0 0 0 117.336 96V160A10.664 10.664 0 0 0 138.664 160V96C138.664 90.112 133.896 85.336 128 85.336zM170.664 128C170.664 133.888 165.888 138.664 160 138.664H96A10.664 10.664 0 0 1 96 117.336H160C165.888 117.336 170.664 122.112 170.664 128z" />
    <glyph glyph-name="000002-ic24horas"
      unicode="&#xEA03;"
      horiz-adv-x="256" d="M128 116.792A33.584 33.584 0 0 0 151.28 59.008L129.88 38.416H161.584V16H94.416V35.344L135.792 75.176A11.224 11.224 0 0 1 128 94.464C121.84 94.464 116.792 89.464 116.792 83.264H94.416A33.568 33.568 0 0 0 128 116.776zM195.208 116.792V72H217.584V116.792H240V16H217.584V49.584H172.784V116.784H195.208zM27.208 128C33.4 128 38.344 122.96 39.112 116.816A89.592 89.592 0 0 1 72 58.048V31.008C41.608 48.592 20.2 80.08 16.56 116.808C15.936 122.96 21.008 128 27.2 128zM128 240C186.072 240 233.84 195.784 239.424 139.208H216.904C211.376 183.424 173.704 217.584 128 217.584A89.272 89.272 0 0 1 59.296 185.488L69.552 175.24C74.592 170.2 71.024 161.584 63.896 161.584H24A8 8 0 0 0 16 169.584V209.504C16 216.624 24.608 220.192 29.648 215.16L43.424 201.416A111.792 111.792 0 0 0 128 240z" />
    <glyph glyph-name="000003-ic360"
      unicode="&#xEA04;"
      horiz-adv-x="256" d="M202.648 192.648V169.248C222.848 159.096 234.648 145.448 234.648 131.696C234.648 116.304 219.976 101.192 195.688 90.912C190.256 88.616 187.208 82.616 189.072 77.024C190.936 71.432 197.008 68.368 202.464 70.6C236.2 84.4 256 106.768 256 131.648C256 156.496 236.552 178.696 202.648 192.648zM121.752 99.648A10.68 10.68 0 1 1 106.648 84.552L112.304 78.904C61.6 82.848 21.344 105.352 21.344 131.648C21.344 145.504 33.152 159.096 53.344 169.2V192.6C19.912 178.8 0 156.2 0 131.648C0 92.504 49.248 61.248 114.4 57.4L108.144 50.728A10.672 10.672 0 0 1 123.704 36.128L146.448 60.352A10.64 10.64 0 0 1 146.2 75.2L121.752 99.648zM96.152 192.296H64.152V202.96H85.496V213.648H64.16V224.296H96.16V192.296zM96.152 170.952H64.152V181.592H85.496V192.256H64.16V202.896H96.16V170.952zM117.504 197.648H106.848V224.296H144.152V213.656H117.504V197.656zM144.152 170.952H106.848V202.952H144.152V170.952zM117.504 181.648H133.504V192.304H117.504V181.648zM192.152 170.952H154.848V224.296H192.152V170.952zM165.504 181.648H181.504V213.648H165.504V181.648zM213.504 224.296H202.848V213.656H213.504V224.296z" />
    <glyph glyph-name="000004-icAcademy"
      unicode="&#xEA02;"
      horiz-adv-x="256" d="M36.969 222.643C31.807 221.25 28.883 219.425 26.219 215.932C21.456 209.684 21.5 210.367 21.5 143.5C21.5 73.766 21.218 76.936 28.022 70.132C33.491 64.663 38.013 64.001 69.932 63.994C86.781 63.991 100.05 63.559 102.277 62.94C109.357 60.974 116.913 51.881 116.978 45.25C116.999 43.054 117.266 43 128 43C138.734 43 139.001 43.054 139.022 45.25C139.087 51.881 146.643 60.974 153.723 62.94C155.95 63.559 169.219 63.991 186.068 63.994C217.987 64.001 222.509 64.663 227.978 70.132C234.782 76.936 234.5 73.766 234.5 143.5C234.5 210.695 234.587 209.393 229.615 216.253C228.518 217.767 225.568 220.017 223.06 221.253C218.822 223.341 216.925 223.524 196.204 223.834C158.624 224.396 143.944 222.105 133.25 214.006L128 210.031L122.75 214.012C112.313 221.926 100.04 223.976 63.5 223.907C49.434 223.88 39.866 223.424 36.969 222.643M100.688 200.903C108.043 199.458 112.067 196.413 114.466 190.475C116.375 185.749 116.492 182.862 116.794 132.75C116.97 103.738 116.728 80 116.257 80C115.785 80 114.972 80.389 114.45 80.864C111.126 83.885 105.738 84.445 75 84.966L43.5 85.5L43.242 143.683L42.984 201.866L45.742 202.349C50.395 203.165 95.173 201.986 100.688 200.903M209.258 202.357L213.016 201.736L212.758 143.618L212.5 85.5L181 84.966C150.262 84.445 144.874 83.885 141.55 80.864C141.028 80.389 140.24 80 139.8 80C138.584 80 138.831 176.362 140.066 184C141.478 192.735 143.539 196.006 149.495 198.966C153.795 201.103 156.327 201.515 168.478 202.049C188.86 202.946 204.959 203.067 209.258 202.357" />
    <glyph glyph-name="000005-icAccesoDirecto"
      unicode="&#xEA05;"
      horiz-adv-x="256" d="M149.336 160V176.96C149.336 186.456 160.856 191.256 167.576 184.536L216.536 135.576C220.696 131.416 220.696 124.696 216.536 120.536L167.576 71.576C160.856 64.856 149.336 69.544 149.336 79.04V97.064C96 97.064 58.664 80 32 42.664C42.664 96 74.664 149.336 149.336 160z" />
    <glyph glyph-name="000006-icAccess"
      unicode="&#xEA06;"
      horiz-adv-x="256" d="M110.224 136.64L204.264 230.68A13.175999999999998 13.175999999999998 0 0 0 222.896 212.048L213.576 202.728L236.824 179.488A13.175999999999998 13.175999999999998 0 0 0 218.184 160.848L194.896 184.144L176.256 165.504L194.944 146.824A13.119999999999997 13.119999999999997 0 1 0 176.384 128.264L157.72 146.92L128.856 118.056C148.84 87.656 140.432 46.832 110.032 26.856A65.864 65.864 0 0 0 27.328 35.2C1.632 60.8 1.536 102.48 27.184 128.28A65.768 65.768 0 0 0 110.224 136.632zM101.864 53.792A39.52 39.52 0 0 1 103.4 109.648A39.52 39.52 0 0 1 46.008 109.648A39.472 39.472 0 0 1 46.968 53.792A39.504 39.504 0 0 1 101.864 53.792z" />
    <glyph glyph-name="000007-icAcciones"
      unicode="&#xEA08;"
      horiz-adv-x="256" d="M194.024 123.304L159.464 140.584A58.120000000000005 58.120000000000005 0 0 1 182.08 186.664C182.08 218.984 155.736 245.336 123.416 245.336S64.744 218.984 64.744 186.664A58.6 58.6 0 0 1 96.744 134.504V99.736C73.816 104.64 75.2 104.424 72.64 104.424C66.984 104.424 61.656 102.184 57.6 98.136L42.664 82.984L96.96 28.696C101.544 24 107.944 21.336 114.56 21.336H181.76A21.208 21.208 0 0 1 202.776 39.144L211.304 89.384A31.92 31.92 0 0 1 194.024 123.304zM190.296 92.904L181.76 42.664H114.56A3.9359999999999995 3.9359999999999995 0 0 0 112 43.736L72.744 82.984L118.08 73.496V186.664A5.28 5.28 0 0 0 123.416 192A5.28 5.28 0 0 0 128.744 186.664V122.664H147.52L184.424 104.216C188.696 102.08 191.04 97.496 190.296 92.904zM86.08 186.664A37.376 37.376 0 0 0 123.416 224A37.376 37.376 0 0 0 160.744 186.664A36.952000000000005 36.952000000000005 0 0 0 150.08 160.64V186.664A26.68 26.68 0 0 1 96.744 186.664V160.64A36.952000000000005 36.952000000000005 0 0 0 86.08 186.664z" />
    <glyph glyph-name="000008-icACM"
      unicode="&#xEA07;"
      horiz-adv-x="256" d="M212.752 192H213.912C218.44 192 222.832 192 226.456 191.52C230.544 190.96 235.2080000000001 189.624 239.088 185.752C242.9600000000001 181.88 244.296 177.216 244.848 173.128C245.328 169.496 245.328 165.104 245.328 160.576V63.416C245.328 58.896 245.328 54.504 244.848 50.872C244.296 46.792 242.96 42.12 239.088 38.248C235.2080000000001 34.376 230.544 33.032 226.456 32.488C222.832 32 218.44 32 213.912 32H212.752C208.232 32 203.832 32 200.208 32.48C196.12 33.04 191.456 34.376 187.584 38.248C183.704 42.12 182.368 46.784 181.824 50.872C181.328 54.496 181.328 58.896 181.336 63.416V160V160.576C181.336 165.104 181.336 169.504 181.816 173.128C182.376 177.208 183.704 181.88 187.576 185.752C191.456 189.624 196.12 190.968 200.208 191.512C203.832 192 208.232 192 212.752 192zM202.976 170.36A2.08 2.08 0 0 1 202.96 170.28C202.688 168.256 202.664 165.328 202.664 160V64C202.664 58.672 202.688 55.744 202.96 53.72L202.976 53.64L203.056 53.632C205.08 53.352 208 53.336 213.336 53.336C218.664 53.336 221.584 53.352 223.616 53.632H223.696L223.704 53.712C223.976 55.744 224 58.672 224 64V160C224 165.328 223.976 168.256 223.704 170.28L223.696 170.36L223.616 170.368C221.584 170.648 218.656 170.664 213.336 170.664C208 170.664 205.08 170.648 203.048 170.368H202.968zM127.424 128H128.584C133.104 128 137.496 128 141.128 127.52C145.208 126.96 149.88 125.624 153.752 121.752S158.968 113.216 159.512 109.128C160 105.504 160 101.104 160 96.584V63.416C160 58.896 160 54.504 159.52 50.872C158.96 46.792 157.624 42.12 153.752 38.248S145.216 33.032 141.128 32.488C137.504 32 133.104 32 128.584 32H127.416C122.896 32 118.504 32 114.872 32.48C110.792 33.04 106.12 34.376 102.248 38.248S97.032 46.784 96.488 50.872C96 54.496 96 58.896 96 63.416V96V96.584C96 101.104 96 105.496 96.48 109.128C97.04 113.208 98.376 117.88 102.248 121.752S110.784 126.968 114.872 127.512C118.504 128 122.896 128 127.424 128zM117.64 106.36L117.632 106.28C117.352 104.256 117.336 101.328 117.336 96V64C117.336 58.672 117.352 55.744 117.632 53.72V53.64L117.712 53.632C119.744 53.352 122.672 53.336 128 53.336S136.256 53.352 138.28 53.632H138.36L138.368 53.712C138.648 55.744 138.664 58.672 138.664 64V96C138.664 101.328 138.648 104.256 138.368 106.28V106.36L138.288 106.368C136.256 106.648 133.328 106.664 128 106.664S119.744 106.648 117.72 106.368H117.64zM42.08 170.664H43.248C47.768 170.664 52.168 170.664 55.792 170.184C59.88 169.632 64.544 168.296 68.416 164.424C72.296 160.544 73.632 155.88 74.176 151.792C74.672 148.168 74.664 143.768 74.664 139.248V63.416C74.664 58.896 74.664 54.504 74.184 50.872C73.624 46.792 72.296 42.12 68.424 38.248C64.544 34.376 59.88 33.032 55.792 32.488C52.168 32 47.768 32 43.248 32H42.08C37.552 32 33.16 32 29.536 32.48C25.448 33.04 20.784 34.376 16.904 38.248C13.032 42.12 11.696 46.784 11.144 50.872C10.664 54.496 10.664 58.896 10.664 63.416V138.664V139.248C10.664 143.768 10.664 148.168 11.144 151.792C11.696 155.88 13.032 160.544 16.904 164.416C20.784 168.296 25.448 169.632 29.536 170.176C33.16 170.672 37.552 170.672 42.08 170.664zM32.304 149.024L32.296 148.944C32.024 146.928 32 144 32 138.672V64C32 58.672 32.024 55.744 32.296 53.72L32.304 53.64L32.384 53.632C34.416 53.352 37.344 53.336 42.664 53.336C48 53.336 50.92 53.352 52.952 53.632H53.032V53.712C53.312 55.744 53.336 58.672 53.336 64V138.664C53.336 144 53.312 146.92 53.04 148.952L53.024 149.032H52.944C50.92 149.312 48 149.336 42.664 149.336C37.336 149.336 34.416 149.312 32.384 149.04L32.304 149.024z" />
    <glyph glyph-name="000009-icAddLogo"
      unicode="&#xEA0B;"
      horiz-adv-x="256" d="M16 178.704C16 184.744 20.904 189.648 26.944 189.648H142.68C148.624 189.648 153.48 184.896 153.624 178.952C153.664 177.024 153.672 175.384 153.672 173.872C153.68 171.32 153.688 169.168 153.88 166.688C154.16 163.616 154.208 158.112 154.208 153.456L156.72 153.408C164.128 153.288 173.056 153.128 178.976 152.976A10.943999999999999 10.943999999999999 0 0 0 189.648 142.032V26.944C189.648 20.904 184.744 16 178.704 16H26.944A10.943999999999999 10.943999999999999 0 0 0 16 26.944V178.704zM143.176 142.68L143.016 131.736A10.943999999999999 10.943999999999999 0 0 0 132.232 142.864V143.048L132.24 143.608A558.904 558.904 0 0 1 132.32 152.192C132.328 157.448 132.272 162.656 132.08 164.776L132.072 164.84V164.888A75.224 75.224 0 0 0 131.896 167.752H37.896V37.896H167.752V131.32A4746.8 4746.8 0 0 1 146.904 131.672L144.056 131.72L143.016 131.736L143.176 142.68zM132.232 229.056C132.232 235.096 137.128 240 143.176 240H229.552C235.6 240 240.496 235.096 240.496 229.056V142.68C240.496 136.632 235.592 131.728 229.552 131.728H143.176A10.943999999999999 10.943999999999999 0 0 0 132.232 142.68V229.056zM154.12 218.104V153.624H218.6V218.104H154.12zM79.936 130.832L100.688 111.136L146.656 159.544L160.496 146.408L114.52 98L135.264 78.296L74.76 69.984L79.936 130.832z" />
    <glyph glyph-name="000010-icAddress"
      unicode="&#xEA0A;"
      horiz-adv-x="256" d="M128 202.664A64 64 0 0 1 64 138.664C64 115.784 75.648 96.904 90.184 82.232C104.296 68 120.288 58.632 128 54.576C135.72 58.632 151.704 68 165.816 82.232C180.352 96.896 192 115.776 192 138.664A64 64 0 0 1 128 202.664zM42.664 138.664C42.664 185.792 80.88 224 128 224S213.336 185.792 213.336 138.664C213.336 108.048 197.68 84.08 180.96 67.216C164.24 50.336 145.544 39.64 137.16 35.296A19.784 19.784 0 0 0 118.84 35.296C110.456 39.64 91.768 50.336 75.04 67.216C58.32 84.08 42.664 108.048 42.664 138.664zM128 160A21.336 21.336 0 1 1 128 117.336A21.336 21.336 0 0 1 128 160zM85.336 138.664A42.664 42.664 0 1 0 170.664 138.664A42.664 42.664 0 0 0 85.336 138.664z" />
    <glyph glyph-name="000011-icAdjunto"
      unicode="&#xEA09;"
      horiz-adv-x="256" d="M156.536 181.8A11.776 11.776 0 0 0 156.52 165.152L98.208 106.8A11.808 11.808 0 0 1 114.616 89.84L114.888 90.12L181.56 156.792A35.32 35.32 0 0 1 181.56 206.792A35.32 35.32 0 0 1 131.568 206.792L64.848 140.152A58.912 58.912 0 0 1 147.12 55.816C147.488 56.176 147.84 56.496 148.16 56.856L206.496 115.192A11.792 11.792 0 1 0 223.176 98.512L164.848 40.176C132.616 7.952 80.4 7.952 48.176 40.176C15.952 72.4 15.952 124.616 48.176 156.84L114.848 223.472C138.24 246.088 175.544 245.408 198.16 222.024A58.872 58.872 0 0 0 198.16 140.168L131.528 73.488A35.32 35.32 0 0 0 81.536 73.488A35.32 35.32 0 0 0 81.536 123.488L139.872 181.816A11.784 11.784 0 0 0 156.544 181.808z" />
    <glyph glyph-name="000012-icAdvancedPanel"
      unicode="&#xEA0C;"
      horiz-adv-x="256" d="M106.664 170.664C106.664 176.56 111.44 181.336 117.336 181.336H213.336A10.664 10.664 0 0 0 213.336 160H117.336A10.664 10.664 0 0 0 106.664 170.664zM32 85.336C32 91.224 36.776 96 42.664 96H149.336A10.664 10.664 0 0 0 149.336 74.664H42.664A10.664 10.664 0 0 0 32 85.336zM96 170.664A21.336 21.336 0 1 1 53.336 170.664A21.336 21.336 0 0 1 96 170.664zM74.664 213.336A42.664 42.664 0 1 0 74.664 128A42.664 42.664 0 0 0 74.664 213.336zM202.664 85.336A21.336 21.336 0 1 1 160 85.336A21.336 21.336 0 0 1 202.664 85.336zM181.336 128A42.664 42.664 0 1 0 181.336 42.664A42.664 42.664 0 0 0 181.336 128z" />
    <glyph glyph-name="000013-icAgendaM"
      unicode="&#xEA0D;"
      horiz-adv-x="256" d="M159.704 181.72C159.976 183.744 160 186.672 160 192H96C96 186.672 96.024 183.744 96.296 181.72L96.304 181.64L96.384 181.632C98.416 181.36 101.344 181.336 106.664 181.336H149.336C154.664 181.336 157.584 181.36 159.616 181.632L159.696 181.64L159.704 181.72zM181.336 234.664V213.288C186.648 213.208 191.392 213.008 195.496 212.456C202.488 211.52 209.192 209.4 214.624 203.96C220.064 198.52 222.184 191.824 223.128 184.832C224.008 178.304 224.008 170.16 224 160.704V73.968C224 64.512 224 56.368 223.12 49.84C222.184 42.848 220.064 36.144 214.624 30.704C209.184 25.264 202.488 23.152 195.4960000000001 22.208C188.9680000000001 21.328 180.8240000000001 21.328 171.3680000000001 21.328H84.64C75.184 21.328 67.04 21.328 60.512 22.208C53.52 23.152 46.816 25.272 41.384 30.704C35.944 36.144 33.824 42.848 32.888 49.84C32 56.36 32 64.512 32 73.968V160.704C32 170.16 32 178.304 32.88 184.832C33.816 191.824 35.936 198.528 41.376 203.96C46.816 209.4 53.512 211.52 60.496 212.456C64.608 213.016 69.352 213.216 74.664 213.288V234.664A10.664 10.664 0 0 0 96 234.664V213.336H160V234.664A10.664 10.664 0 0 0 181.336 234.664zM192.656 191.312A98.88000000000001 98.88000000000001 0 0 1 181.336 191.952V191.424C181.336 186.896 181.336 182.504 180.848 178.872C180.296 174.792 178.96 170.12 175.088 166.248C171.208 162.376 166.544 161.0320000000001 162.456 160.488C158.832 160 154.44 160 149.912 160.008H106.088C101.56 160 97.168 160 93.544 160.488C89.456 161.04 84.792 162.376 80.912 166.248C77.04 170.12 75.704 174.784 75.152 178.872C74.672 182.504 74.672 186.896 74.672 191.424V191.952A98.88000000000001 98.88000000000001 0 0 1 63.344 191.312C58.72 190.696 57.264 189.688 56.464 188.88C55.648 188.064 54.64 186.616 54.016 181.984C53.352 177.056 53.336 170.36 53.336 160V74.664C53.336 64.312 53.352 57.616 54.016 52.68C54.64 48.056 55.648 46.6 56.456 45.792C57.272 44.976 58.72 43.976 63.344 43.352C68.28 42.688 74.976 42.664 85.336 42.664H170.664C181.024 42.664 187.72 42.688 192.656 43.352C197.28 43.976 198.736 44.976 199.536 45.792C200.352 46.6 201.36 48.056 201.984 52.68C202.64 57.616 202.664 64.312 202.664 74.664V160C202.664 170.36 202.648 177.056 201.984 181.984C201.36 186.616 200.352 188.064 199.544 188.88C198.728 189.688 197.28 190.696 192.656 191.312zM96 117.336A10.664 10.664 0 0 1 96 96H160A10.664 10.664 0 0 1 160 117.336H96z" />
    <glyph glyph-name="000014-icAllSalesman"
      unicode="&#xEA0F;"
      horiz-adv-x="256" d="M96 128C118.056 128 136 145.944 136 168S118.056 208 96 208S56 190.056 56 168S73.944 128 96 128zM96 185.144A17.12 17.12 0 0 0 113.144 168A17.12 17.12 0 0 0 96 150.856A17.12 17.12 0 0 0 78.856 168A17.12 17.12 0 0 0 96 185.144zM96 108C69.256 108 16 94.632 16 68V59.432C16 53.144 21.144 48 27.432 48H164.56C170.848 48 175.992 53.144 175.992 59.432V68C175.992 94.632 122.736 108 95.992 108zM42.744 70.856C52.344 77.488 75.544 85.144 96 85.144C116.456 85.144 139.656 77.488 149.256 70.856H42.744zM176.456 107.312C189.712 97.712 198.856 84.912 198.856 68V48H233.144C239.432 48 244.568 53.144 244.568 59.432V68C244.568 91.088 204.568 104.232 176.456 107.312zM164.568 128C186.632 128 204.568 145.944 204.568 168S186.632 208 164.568 208C158.4 208 152.688 206.512 147.432 204A62.175999999999995 62.175999999999995 0 0 0 158.856 168A62.175999999999995 62.175999999999995 0 0 0 147.432 132C152.688 129.488 158.4 128 164.568 128z" />
    <glyph glyph-name="000015-icAmueblado"
      unicode="&#xEA0E;"
      horiz-adv-x="256" d="M213.336 170.664V192C213.336 209.6 198.936 224 181.336 224H74.664C57.064 224 42.664 209.6 42.664 192V170.664C25.064 170.664 10.664 156.264 10.664 138.664V85.336C10.664 67.736 25.064 53.336 42.664 53.336V42.664C42.664 36.8 47.464 32 53.336 32C59.2 32 64 36.8 64 42.664V53.336H192V42.664C192 36.8 196.8 32 202.664 32C208.536 32 213.336 36.8 213.336 42.664V53.336C230.936 53.336 245.336 67.736 245.336 85.336V138.664C245.336 156.264 230.936 170.664 213.336 170.664zM64 192C64 197.864 68.8 202.664 74.664 202.664H181.336C187.2 202.664 192 197.864 192 192V162.344A31.848 31.848 0 0 1 181.336 138.664V117.336H74.664V138.664C74.664 148.056 70.504 156.48 64 162.344V192zM224 85.336C224 79.464 219.2 74.664 213.336 74.664H42.664C36.8 74.664 32 79.464 32 85.336V138.664C32 144.536 36.8 149.336 42.664 149.336C48.536 149.336 53.336 144.536 53.336 138.664V96H202.664V138.664C202.664 144.536 207.464 149.336 213.336 149.336C219.2 149.336 224 144.536 224 138.664V85.336z" />
    <glyph glyph-name="000016-icApple"
      unicode="&#xEA10;"
      horiz-adv-x="256" d="M172 245.336C159.704 244.616 145.584 237.768 137.184 229.04C129.6 221.104 123.624 209.32 126.064 197.92C139.424 197.568 152.84 204.592 160.872 213.48C168.376 221.792 174.056 233.384 172 245.336zM172.728 197.936C153.432 197.936 145.368 186.08 132 186.08C118.248 186.08 105.68 197.184 89.04 197.184C66.4 197.184 32 176.208 32 126.816C32 81.864 72.72 32 95.704 32C109.672 31.864 113.056 40.776 132 40.88C150.96 41.016 155.056 31.88 169.04 32C184.784 32.12 197.08 49.416 206.064 63.12C212.504 72.936 215.152 77.952 220.144 89.04C183.104 98.432 175.728 158.168 220.144 170.5200000000001C211.76 184.824 187.288 197.936 172.728 197.936z" />
    <glyph glyph-name="000017-icArchivar"
      unicode="&#xEA11;"
      horiz-adv-x="256" d="M181.336 128H149.336V170.664H106.664V128H74.664L128 74.664L181.336 128zM202.664 224H158.08C153.6 236.376 141.864 245.336 128 245.336C114.136 245.336 102.4 236.376 97.92 224H53.336C51.84 224 50.456 223.896 49.064 223.576C44.904 222.72 41.176 220.584 38.296 217.704C36.376 215.784 34.776 213.44 33.704 210.88A20.552 20.552 0 0 1 32 202.664V53.336C32 50.456 32.64 47.576 33.704 45.016C34.776 42.456 36.376 40.216 38.296 38.184C41.176 35.304 44.904 33.176 49.064 32.32C50.456 32.104 51.84 32 53.336 32H202.664C214.4 32 224 41.6 224 53.336V202.664C224 214.4 214.4 224 202.664 224zM128 226.664C132.376 226.664 136 223.04 136 218.664C136 214.296 132.376 210.664 128 210.664C123.624 210.664 120 214.296 120 218.664C120 223.04 123.624 226.664 128 226.664zM202.664 53.336H53.336V202.664H202.664V53.336z" />
    <glyph glyph-name="000018-icAreas"
      unicode="&#xEA12;"
      horiz-adv-x="256" d="M77.432 202.168A33.712 33.712 0 1 0 9.992 202.168A33.712 33.712 0 0 0 77.432 202.168zM77.432 53.832A33.712 33.712 0 1 0 10 53.832A33.712 33.712 0 0 0 77.432 53.832zM246 53.832A33.712 33.712 0 1 0 178.568 53.832A33.712 33.712 0 0 0 246 53.832zM205.544 175.2A33.712 33.712 0 1 0 138.112 175.2A33.712 33.712 0 0 0 205.5440000000001 175.2zM30.232 218.664L176.048 180.288L226.984 47.088H30.232V218.664zM50.456 192.424V67.312H197.6L160.872 163.368L50.472 192.424z" />
    <glyph glyph-name="000019-icArrowDown"
      unicode="&#xEA13;"
      horiz-adv-x="256" d="M46.312 178.696A10.664 10.664 0 0 0 61.36 177.688L128 101.528L194.64 177.688A10.664 10.664 0 0 0 210.696 163.64L144.056 87.48A21.336 21.336 0 0 0 111.944 87.48L45.304 163.64A10.664 10.664 0 0 0 46.312 178.696z" />
    <glyph glyph-name="000020-icArrowLeft"
      unicode="&#xEA14;"
      horiz-adv-x="256" d="M178.696 209.688A10.664 10.664 0 0 0 177.688 194.64L101.528 128L177.688 61.36A10.664 10.664 0 1 0 163.64 45.304L87.48 111.944A21.336 21.336 0 0 0 87.48 144.056L163.64 210.696A10.664 10.664 0 0 0 178.696 209.688z" />
    <glyph glyph-name="000021-icArrowLeftTop"
      unicode="&#xEA15;"
      horiz-adv-x="256" d="M211.6 70.944L154.696 128L211.744 185.056A14.608000000000002 14.608000000000002 0 0 1 211.744 205.736A14.608000000000002 14.608000000000002 0 0 1 191.064 205.736L123.744 138.416A14.608000000000002 14.608000000000002 0 0 1 123.744 117.736L191.064 50.416C196.784 44.696 206.024 44.696 211.744 50.416A14.560000000000002 14.560000000000002 0 0 1 211.6 70.944zM54.664 216C62.736 216 69.336 209.4 69.336 201.336V54.664A14.712 14.712 0 0 0 54.664 40A14.712 14.712 0 0 0 40 54.664V201.336C40 209.4 46.6 216 54.664 216z" />
    <glyph glyph-name="000022-icArrowRight"
      unicode="&#xEA16;"
      horiz-adv-x="256" d="M77.304 46.312A10.664 10.664 0 0 0 78.312 61.36L154.472 128L78.312 194.64A10.664 10.664 0 0 0 92.36 210.696L168.52 144.056A21.336 21.336 0 0 0 168.52 111.944L92.36 45.304A10.664 10.664 0 0 0 77.304 46.312z" />
    <glyph glyph-name="000023-icArrowRightTop"
      unicode="&#xEA17;"
      horiz-adv-x="256" d="M44.4 185.056L101.304 128L44.256 70.944A14.608000000000002 14.608000000000002 0 0 1 44.256 50.264C49.976 44.544 59.216 44.544 64.936 50.264L132.256 117.584A14.608000000000002 14.608000000000002 0 0 1 132.256 138.264L64.936 205.584A14.608000000000002 14.608000000000002 0 0 1 44.256 205.584A14.560000000000002 14.560000000000002 0 0 1 44.4 185.056zM201.336 40A14.712 14.712 0 0 0 186.664 54.664V201.336C186.664 209.4 193.264 216 201.336 216C209.4 216 216 209.4 216 201.336V54.664A14.712 14.712 0 0 0 201.336 40z" />
    <glyph glyph-name="000024-icAscensor"
      unicode="&#xEA18;"
      horiz-adv-x="256" d="M202.664 202.664V53.336H53.336V202.664H202.664zM202.664 224H53.336A21.4 21.4 0 0 1 32 202.664V53.336C32 41.6 41.6 32 53.336 32H202.664C214.4 32 224 41.6 224 53.336V202.664C224 214.4 214.4 224 202.664 224zM106.664 64V106.664H117.336V133.336C117.336 145.064 107.736 154.664 96 154.664H85.336A21.392 21.392 0 0 1 64 133.336V106.664H74.664V64H106.664zM90.664 165.336A13.335999999999999 13.335999999999999 0 1 1 90.664 192.008A13.335999999999999 13.335999999999999 0 0 1 90.664 165.336zM192 138.664L165.336 181.336L138.664 138.664H192zM138.664 117.336L165.336 74.664L192 117.336H138.664z" />
    <glyph glyph-name="000025-icAsistenciaRemota"
      unicode="&#xEA19;"
      horiz-adv-x="256" d="M34.648 207.152V81.352H217.648V207.152H34.648zM11.8 218.552C11.8 224.896 17 230.048 23.152 230.048H229.2A11.44 11.44 0 0 0 240.552 218.552V74.496A16 16 0 0 0 224.552 58.496H27.8A16 16 0 0 0 11.8 74.496V218.56zM0.352 35.592C0.352 41.92 5.472 47.048 11.792 47.048H240.496A11.448 11.448 0 1 0 240.496 24.152H11.8C5.48 24.152 0.352 29.272 0.352 35.592zM168.752 152.8H134.64V186.904A8.544 8.544 0 1 1 117.544 186.904V152.744H83.496A8.544 8.544 0 1 1 83.496 135.648H117.64V101.504A8.544 8.544 0 1 1 134.744 101.504V135.648H168.896C173.592 135.648 177.44 139.448 177.44 144.208A8.72 8.72 0 0 1 168.744 152.8z" />
    <glyph glyph-name="000026-icAtras"
      unicode="&#xEA1A;"
      horiz-adv-x="256" d="M69.976 170.88C65.064 175.784 56.64 174.936 53.336 168.856C50.344 163.416 48 157.864 46.184 152C44.16 145.28 49.496 138.664 56.424 138.664H56.536A10.4 10.4 0 0 1 66.56 146.136C67.84 150.4 69.544 154.56 71.68 158.616C74.024 162.56 73.28 167.576 69.976 170.88zM56.64 117.336H56.424C49.496 117.336 44.16 110.72 46.184 104C47.896 98.24 50.24 92.584 53.224 87.144C56.536 81.064 65.064 80.104 69.976 85.016C73.176 88.32 74.024 93.224 71.784 97.28A65.792 65.792 0 0 0 66.664 109.656C65.384 114.344 61.224 117.3360000000001 56.64 117.3360000000001zM87.04 53.12C92.48 50.136 98.136 47.784 104 46.08C110.616 44.16 117.224 49.496 117.224 56.32V56.64A10.4 10.4 0 0 1 109.76 66.664A64.816 64.816 0 0 0 97.496 71.784A10.344 10.344 0 0 1 85.12 69.976L84.8 69.656C80 64.856 80.96 56.424 87.04 53.12zM138.664 212.584V219.624C138.664 229.12 127.144 233.92 120.424 227.2L97.816 204.48A10.688 10.688 0 0 1 97.816 189.224L120.536 167.04C127.256 160.424 138.664 165.224 138.664 174.72V191.04C168.96 185.92 192 159.68 192 128C192 98.88 172.584 74.456 145.92 66.664C141.544 65.384 138.664 61.224 138.664 56.64V56.424C138.664 49.496 145.176 44.264 151.784 46.184A85.08 85.08 0 0 1 213.336 128C213.336 171.52 180.8 207.36 138.664 212.584z" />
    <glyph glyph-name="000027-icAuto"
      unicode="&#xEA1B;"
      horiz-adv-x="256" d="M128 192V172.904C128 168.104 133.76 165.76 137.072 169.176L166.832 198.936A5.28 5.28 0 0 1 166.832 206.504L137.072 236.264C133.76 239.576 128 237.224 128 232.424V213.336C80.856 213.336 42.672 175.144 42.672 128C42.672 116.904 44.8 106.24 48.752 96.536A10.688 10.688 0 0 1 66.24 92.904C69.12 95.784 70.296 100.16 68.696 104A62.111999999999995 62.111999999999995 0 0 0 64 128C64 163.304 92.696 192 128 192zM189.76 163.096C186.88 160.216 185.712 155.736 187.312 152A64.56 64.56 0 0 0 192 128C192 92.696 163.304 64 128 64V83.096C128 87.896 122.24 90.24 118.936 86.824L89.176 57.064A5.28 5.28 0 0 1 89.176 49.496L118.936 19.736C122.24 16.424 128 18.776 128 23.464V42.664C175.144 42.664 213.336 80.856 213.336 128C213.336 139.096 211.2 149.76 207.256 159.464A10.688 10.688 0 0 1 189.76 163.096z" />
    <glyph glyph-name="000028-icAutoetiqueta"
      unicode="&#xEA20;"
      horiz-adv-x="256" d="M18.344 189.36A11.704 11.704 0 0 0 20.824 205.864L64.456 237.704A12.048 12.048 0 0 0 81.16 235.192L101.976 207.352H216.16C227.896 207.352 237.496 197.752 237.496 186.016V36.688C237.496 24.952 227.896 15.352 216.16 15.352H66.832A21.4 21.4 0 0 0 45.496 36.688V152.608L18.344 189.36zM66.824 123.72V36.68H216.16V186.024H117.92L129.84 170.088C132.584 166.448 133.704 161.88 132.968 157.4L127.408 123.632C126.272 116.72 117.832 110.64 110.808 111.6L77.256 116.64A22.944 22.944 0 0 1 75.336 117.104C72.84 117.616 71.08 117.976 66.912 123.616L66.832 123.728zM108.552 134.176A9.68 9.68 0 0 1 110.608 147.832A9.96 9.96 0 0 1 96.816 149.944A9.68 9.68 0 0 1 94.976 136.04L95.176 135.8C96.44 134.256 98.76 133.016 99.816 132.712C102.68 131.832 105.944 132.272 108.552 134.176zM132.32 71.568L164.32 112.848L205.496 58.016H77.496L109.496 99.192L132.32 71.568z" />
    <glyph glyph-name="000029-icAvisoImportante"
      unicode="&#xEA1E;"
      horiz-adv-x="256" d="M128 192.104L208.32 53.336H47.68L128 192.104zM29.224 64C21.016 49.816 31.256 32 47.68 32H208.32C224.744 32 234.984 49.816 226.776 64L146.456 202.776C138.24 216.96 117.76 216.96 109.544 202.776L29.224 64zM117.336 138.664V117.336C117.336 111.464 122.136 106.664 128 106.664S138.664 111.464 138.664 117.336V138.664C138.664 144.536 133.864 149.336 128 149.336S117.336 144.536 117.336 138.664zM117.336 85.336H138.664V64H117.336V85.336z" />
    <glyph glyph-name="000030-icAyuda"
      unicode="&#xEA1C;"
      horiz-adv-x="256" d="M128 213.336C80.872 213.336 42.664 175.12 42.664 128S80.88 42.664 128 42.664S213.336 80.88 213.336 128S175.12 213.336 128 213.336zM21.336 128C21.336 186.912 69.096 234.664 128 234.664C186.912 234.664 234.664 186.904 234.664 128C234.664 69.088 186.904 21.336 128 21.336C69.088 21.336 21.336 69.096 21.336 128zM133.336 64A5.336 5.336 0 1 0 122.664 64A5.336 5.336 0 0 0 133.336 64zM117.336 64A10.664 10.664 0 1 0 138.664 64A10.664 10.664 0 0 0 117.336 64zM85.336 149.336A42.664 42.664 0 0 0 128 192H129.008A41.664 41.664 0 0 0 170.664 150.336V144.864A34.064 34.064 0 0 0 147.376 112.544A12.736 12.736 0 0 1 138.664 100.464V85.336H117.336V100.464A34.064 34.064 0 0 0 140.624 132.784A12.736 12.736 0 0 1 149.336 144.864V150.336A20.32 20.32 0 0 1 129.008 170.664H128A21.336 21.336 0 0 1 106.664 149.336H85.336z" />
    <glyph glyph-name="000031-icBathrooms"
      unicode="&#xEA21;"
      horiz-adv-x="256" d="M152 192C156.376 192 160 188.376 160 184C160 179.624 156.376 176 152 176C147.624 176 144 179.624 144 184C144 188.376 147.624 192 152 192zM152 208C138.776 208 128 197.224 128 184S138.776 160 152 160S176 170.776 176 184S165.224 208 152 208zM213.336 197.336A5.28 5.28 0 0 0 218.664 192A5.28 5.28 0 0 0 213.336 186.664A5.28 5.28 0 0 0 208 192A5.28 5.28 0 0 0 213.336 197.336zM213.336 213.336A21.4 21.4 0 0 1 192 192C192 180.264 201.6 170.664 213.336 170.664C225.064 170.664 234.664 180.264 234.664 192C234.664 203.736 225.064 213.336 213.336 213.336zM192 229.336C192 220.48 184.856 213.336 176 213.336S160 220.48 160 229.336C160 238.184 167.144 245.336 176 245.336S192 238.184 192 229.336zM20.696 130.24C14.296 124.264 10.664 115.84 10.664 106.984V42.664C10.664 24.96 24.96 10.664 42.664 10.664H188.584C195.52 10.664 201.92 15.68 202.664 22.616C203.52 30.616 197.224 37.336 189.44 37.336H133.336A5.28 5.28 0 0 0 128 42.664A5.28 5.28 0 0 0 133.336 48H209.92C216.856 48 223.256 53.016 224 59.944C224.856 67.944 218.56 74.664 210.7760000000001 74.664H133.3360000000001A5.28 5.28 0 0 0 128 80A5.28 5.28 0 0 0 133.336 85.336H220.584C227.52 85.336 233.92 90.344 234.664 97.28C235.52 105.28 229.224 112 221.44 112H133.336A5.28 5.28 0 0 0 128 117.336A5.28 5.28 0 0 0 133.336 122.664H199.256C206.184 122.664 212.584 127.68 213.3360000000001 134.616C214.1840000000001 142.616 207.8960000000001 149.336 200.1040000000001 149.336H94.5040000000001L110.4000000000001 177.176C111.36 178.88 111.896 180.696 111.896 182.824C111.896 185.6 110.9360000000001 188.16 109.1200000000001 190.296L104.64 195.096A10.72 10.72 0 0 1 89.6000000000001 195.416L20.696 130.24z" />
    <glyph glyph-name="000032-icBestPhoto"
      unicode="&#xEA1D;"
      horiz-adv-x="256" d="M213.328 213.336V85.336H85.328V213.336H213.328zM213.328 234.664H85.328A21.4 21.4 0 0 1 64 213.336V85.336C64 73.6 73.6 64 85.328 64H213.328C225.064 64 234.664 73.6 234.664 85.336V213.336C234.664 225.064 225.064 234.664 213.336 234.664zM122.664 131.52L140.696 107.416L167.144 140.48L202.664 96H96L122.664 131.52zM21.336 192V42.664C21.336 30.936 30.936 21.336 42.664 21.336H192V42.664H42.664V192H21.328z" />
    <glyph glyph-name="000033-icBetaInmovilla"
      unicode="&#xEA1F;"
      horiz-adv-x="256" d="M174 248A8 8 0 0 0 182 240V228A8 8 0 1 0 166 228V240A8 8 0 0 0 174 248zM211.84 235.92A7.984000000000001 7.984000000000001 0 0 0 211.84 224.56L203.36 216.08A8 8 0 1 0 192.08 227.44L200.56 235.92A8 8 0 0 0 211.84 235.92zM136.08 235.92A8 8 0 0 0 147.36 235.92L155.84 227.44A7.984000000000001 7.984000000000001 0 0 0 155.84 216.08A8 8 0 0 0 144.56 216.08L136.08 224.56A7.991999999999999 7.991999999999999 0 0 0 136.08 235.92zM212.96 118.4A51.44 51.44 0 0 1 224.88 152.48C224.88 175.36 204.56 202 178.4 202H67.6A12.64 12.64 0 0 1 56.8 195.92L1.68 103.6A12.72 12.72 0 0 1 6.272 86.336C8.184 85.232 10.352 84.64 12.56 84.64H27.28V25.36A16.8 16.8 0 0 1 44.08 8.56H188A72 72 0 0 1 232.32 22.72A49.432 49.432 0 0 1 252.08 62.24A56 56 0 0 1 212.96 118.4zM72.56 180.48H153.28L120.56 105.76H27.92L72.56 180.48zM48.56 84.48H145.6V29.76H48.48L48.56 84.48zM219.12 39.12A50.64 50.64 0 0 0 187.92 29.52H167.04V90.24A16 16 0 0 1 151.44 105.84H143.92L176.56 180.32H178.4C191.68 180.32 203.52 164.32 203.52 152.16A26.32 26.32 0 0 0 186.4 125.2A11.76 11.76 0 0 1 178.4 113.92A11.84 11.84 0 0 1 188.88 102.08C206.32 100 230.48 91.84 230.56 62.08A28.4 28.4 0 0 0 219.04 39.44L219.12 39.12z" />
    <glyph glyph-name="000034-icBorrador"
      unicode="&#xEA24;"
      horiz-adv-x="256" d="M138.4 170.4H42.4C36.8 170.4 32 175.2 32 181.6C32 187.2 36.8 192 42.4 192H138.4C144 192 148.8 187.2 148.8 181.6C149.6 175.2 144.8 170.4 138.4 170.4zM138.4 128H42.4C36.8 128 32 132.8 32 138.4C32 144 36.8 148.8 42.4 148.8H138.4C144 148.8 148.8 144 148.8 138.4C149.6 132.8 144.8 128 138.4 128zM96 85.6H42.4C36.8 85.6 32 90.4 32 96C32 101.6 36.8 106.4 42.4 106.4H96C101.6 106.4 106.4 101.6 106.4 96C106.4 90.4 101.6 85.6 96 85.6zM184.8 111.2L207.2 88.8L152 33.6C151.2 32.8 149.6 32 148.8 32H133.6C131.2 32 128.8 34.4 128.8 36.8V52C128.8 53.6 129.6 54.4 130.4 55.2L184.8 111.2zM192 118.4L214.4 96L223.2 104C227.2 108 227.2 113.6 223.2 117.6L213.6 127.2C210.4 130.4 204.8 130.4 200.8 127.2L192 118.4z" />
    <glyph glyph-name="000035-icBroke"
      unicode="&#xEA22;"
      horiz-adv-x="256" d="M208.744 213.864C188.264 227.624 165.224 226.344 146.88 216.64L128 160H145.704A10.72 10.72 0 0 0 155.944 146.24L136.536 81.496C135.576 78.4 130.984 79.36 131.304 82.56L138.664 149.336H120.856C113.816 149.336 108.696 156.16 110.616 162.88L123.2 206.72C103.464 225.176 71.576 231.256 45.544 212.904C30.08 201.92 21.336 184.536 21.336 165.44C21.224 124.8 58.984 93.864 113.704 44.904C121.816 37.656 134.184 37.544 142.4 44.8C195.52 91.944 237.008 125.656 234.56 168.744C233.6 187.2 224 203.52 208.744 213.864z" />
    <glyph glyph-name="000036-icBrujula"
      unicode="&#xEA23;"
      horiz-adv-x="256" d="M128 139.736C121.496 139.736 116.264 134.504 116.264 128C116.264 121.496 121.496 116.264 128 116.264C134.504 116.264 139.736 121.496 139.736 128C139.736 134.504 134.504 139.736 128 139.736zM128 234.664C69.12 234.664 21.336 186.88 21.336 128S69.12 21.336 128 21.336S234.664 69.12 234.664 128S186.88 234.664 128 234.664zM151.36 104.64L64 64L104.64 151.36L192 192L151.36 104.64z" />
    <glyph glyph-name="000037-icCalculadora"
      unicode="&#xEA25;"
      horiz-adv-x="256" d="M215.112 240H40.88A24.96 24.96 0 0 1 16 215.112V40.88A24.96 24.96 0 0 1 40.888 16H215.12A24.96 24.96 0 0 1 240 40.888V215.12A24.96 24.96 0 0 1 215.112 240zM215.112 40.888H40.88V215.12H215.12V40.88zM118.664 181.264H56.44V162.592H118.664V181.264zM202.664 81.336H140.44V62.664H202.664V81.336zM202.664 112.448H140.44V93.776H202.664V112.448zM78.224 53.336H96.888V78.216H121.776V96.888H96.896V121.776H78.216V96.896H53.336V78.224H78.216V53.336zM154 141.064L171.552 158.616L189.104 141.064L202.288 154.264L184.744 171.928L202.296 189.472L189.096 202.672L171.552 185.12L154.008 202.664L140.816 189.472L158.36 171.928L140.816 154.256L154.008 141.064z" />
    <glyph glyph-name="000038-icCalendar"
      unicode="&#xEA26;"
      horiz-adv-x="256" d="M92.08 92.28C86.24 92.28 81.52 87.576 81.52 81.76C81.52 75.952 86.24 71.24 92.08 71.24H156.32C162.152 71.24 166.88 75.952 166.88 81.76C166.88 87.576 162.152 92.28 156.32 92.28H92.08zM195.44 200.36H177.36V220.52A10.56 10.56 0 0 1 166.88 231.08A10.56 10.56 0 0 1 156.32 220.52V200.36H92.32V220.52A10.56 10.56 0 1 1 71.28 220.52V200.36H52.64A36.72 36.72 0 0 1 16 163.72V53.4A36.72 36.72 0 0 1 52.64 16.68H195.2A36.8 36.8 0 0 1 231.92 53.4V163.72A36.72 36.72 0 0 1 195.44 200.36zM52.64 179H70.72V176.6A10.56 10.56 0 0 1 91.76 176.6V179H155.76V176.6A10.56 10.56 0 0 1 166.32 166.12A10.48 10.48 0 0 1 176.8 176.6V179H194.88A15.36 15.36 0 0 0 210.24 163.72V145.72H37.6V163.72A15.36 15.36 0 0 0 52.64 179zM195.44 37.4H52.64A15.36 15.36 0 0 0 37.36 52.76V124.04H210.56V53.4A15.36 15.36 0 0 0 195.44 37.4z" />
    <glyph glyph-name="000039-icCama"
      unicode="&#xEA29;"
      horiz-adv-x="256" d="M224 141.016V170.664C224 188.264 209.6 202.664 192 202.664H149.336C141.12 202.664 133.656 199.464 128 194.344A31.72 31.72 0 0 1 106.664 202.664H64C46.4 202.664 32 188.264 32 170.664V141.016A31.848 31.848 0 0 1 21.336 117.336V64C21.336 58.136 26.136 53.336 32 53.336S42.664 58.136 42.664 64V74.664H213.336V64C213.336 58.136 218.136 53.336 224 53.336S234.664 58.136 234.664 64V117.336C234.664 126.72 230.504 135.144 224 141.016zM149.336 181.336H192C197.864 181.336 202.664 176.536 202.664 170.664V149.336H138.664V170.664C138.664 176.536 143.464 181.336 149.336 181.336zM53.336 170.664C53.336 176.536 58.136 181.336 64 181.336H106.664C112.536 181.336 117.336 176.536 117.336 170.664V149.336H53.336V170.664zM42.664 96V117.336C42.664 123.2 47.464 128 53.336 128H202.664C208.536 128 213.336 123.2 213.336 117.336V96H42.664z" />
    <glyph glyph-name="000040-icCamera"
      unicode="&#xEA27;"
      horiz-adv-x="256" d="M102.976 209.76L80.736 187.52H38.192V54.192H215.952V187.528H173.416L151.216 209.768H102.976zM93.76 232H160.432L182.672 209.76H227.0960000000001C233.2400000000001 209.76 238.1920000000001 204.8 238.1920000000001 198.664V43.096C238.1920000000001 36.952 233.2320000000001 32 227.0960000000001 32H27.096C20.96 32 16 36.96 16 43.096V198.664C16 204.808 20.96 209.76 27.096 209.76H71.528L93.76 232zM127.096 65.336A61.08800000000001 61.08800000000001 0 0 0 66 126.432A61.08800000000001 61.08800000000001 0 1 0 188.192 126.48C188.192 92.744 160.872 65.336 127.096 65.336zM127.096 87.576A38.896 38.896 0 0 1 166 126.472A38.856 38.856 0 0 1 127.096 165.3360000000001A38.896 38.896 0 0 1 88.192 126.4320000000001A38.856 38.856 0 0 1 127.096 87.568z" />
    <glyph glyph-name="000041-icCandado"
      unicode="&#xEA28;"
      horiz-adv-x="256" d="M192 170.664H181.336V192A53.36 53.36 0 0 1 128 245.336A53.36 53.36 0 0 1 74.664 192V170.664H64A21.4 21.4 0 0 1 42.664 149.336V42.664C42.664 30.936 52.264 21.336 64 21.336H192C203.736 21.336 213.336 30.936 213.336 42.664V149.336C213.336 161.064 203.736 170.664 192 170.664zM96 192C96 209.704 110.296 224 128 224S160 209.704 160 192V170.664H96V192zM192 42.664H64V149.336H192V42.664zM128 74.664C139.736 74.664 149.336 84.264 149.336 96C149.336 107.736 139.736 117.336 128 117.336A21.392 21.392 0 0 1 106.664 96C106.664 84.264 116.264 74.664 128 74.664z" />
    <glyph glyph-name="000042-icCandadoClose"
      unicode="&#xEA2B;"
      horiz-adv-x="256" d="M197.504 149.568H193.216V170C193.216 207.8 163.68 239.344 126.8 240H122.776C85.848 239.344 56.32 207.8 56.32 170V149.568H52.032C45.424 149.568 40 142.608 40 134.04V31.576C40 23 45.384 16 52.032 16H197.496C204.104 16 209.528 23 209.528 31.576V134.08C209.488 142.656 204.104 149.568 197.504 149.568zM138.392 82.936V51.96C138.392 48.416 135.464 45.4 131.96 45.4H117.528A6.584 6.584 0 0 0 111.096 51.96V82.936A18.6 18.6 0 0 0 105.712 96.192C105.712 105.992 113.192 114.432 122.688 114.832C123.696 114.872 125.704 114.872 126.712 114.832C136.208 114.432 143.688 105.992 143.688 96.192C143.728 91.032 141.768 86.352 138.392 82.936zM164.864 149.576H84.624V170C84.624 192.48 102.648 211.12 124.744 211.12C146.84 211.12 164.864 192.528 164.864 170V149.568z" />
    <glyph glyph-name="000043-icCandadoOpen"
      unicode="&#xEA2A;"
      horiz-adv-x="256" d="M197.28 141.168H193.2V174.368C193.2 209.768 165.2 239.344 130.248 240H126.448C91.488 239.384 63.488 209.768 63.488 174.376V173.632C63.488 166.192 69.488 160.16 76.92 160.16A13.44 13.44 0 0 1 90.352 173.632V174.376C90.352 195.464 107.416 212.92 128.368 212.92C149.328 212.92 166.384 195.464 166.384 174.376V141.176H59.424C53.152 141.168 48 134.64 48 126.64V30.608C48 22.56 53.12 16 59.416 16H197.28C203.536 16 208.704 22.56 208.704 30.568V126.6C208.656 134.648 203.536 141.168 197.28 141.168zM141.232 78.688V49.688A6.16 6.16 0 0 0 135.152 43.56H121.504A6.16 6.16 0 0 0 115.424 49.688V78.696C112.224 81.888 110.344 86.264 110.344 91.12C110.344 100.304 117.432 108.224 126.448 108.576C127.408 108.616 129.328 108.616 130.248 108.576C139.264 108.224 146.352 100.304 146.352 91.12C146.352 86.264 144.472 81.888 141.232 78.696z" />
    <glyph glyph-name="000044-icCargar"
      unicode="&#xEA2C;"
      horiz-adv-x="256" d="M78.936 149.336H95.896V96C95.896 90.136 100.696 85.336 106.56 85.336H149.224C155.096 85.336 159.896 90.136 159.896 96V149.336H176.856C186.344 149.336 191.144 160.856 184.424 167.576L135.464 216.536C131.304 220.696 124.584 220.696 120.424 216.536L71.464 167.576C64.744 160.856 69.44 149.336 78.936 149.336zM53.336 53.336C53.336 47.464 58.136 42.664 64 42.664H192C197.864 42.664 202.664 47.464 202.664 53.336C202.664 59.2 197.864 64 192 64H64C58.136 64 53.336 59.2 53.336 53.336z" />
    <glyph glyph-name="000045-icCarpeta"
      unicode="&#xEA2D;"
      horiz-adv-x="256" d="M213.336 192H128L112.96 207.04A21.4 21.4 0 0 1 97.816 213.336H42.664A21.303999999999995 21.303999999999995 0 0 1 21.44 192L21.336 64C21.336 52.264 30.936 42.664 42.664 42.664H213.336C225.064 42.664 234.664 52.264 234.664 64V170.664C234.664 182.4 225.064 192 213.336 192zM202.664 64H53.336C47.464 64 42.664 68.8 42.664 74.664V160C42.664 165.864 47.464 170.664 53.336 170.664H202.664C208.536 170.664 213.336 165.864 213.336 160V74.664C213.336 68.8 208.536 64 202.664 64z" />
    <glyph glyph-name="000046-icCarrito"
      unicode="&#xEA2E;"
      horiz-adv-x="256" d="M50.16 190.88L23.456 217.616A10.56 10.56 0 0 0 38.384 232.536L65.12 205.8H225.84A10.552 10.552 0 0 0 235.952 192.224L210.648 107.864A10.56 10.56 0 0 0 200.536 100.36H71.28V79.28H176.744A10.536000000000001 10.536000000000001 0 1 0 176.744 58.2000000000001H60.72C54.88 58.2000000000001 50.16 62.9200000000001 50.16 68.7600000000001V190.88zM71.28 184.72V121.44H192.672L211.64 184.72H71.28zM65.976 16A15.84 15.84 0 0 0 50.16 31.816A15.84 15.84 0 0 0 65.976 47.64A15.816000000000003 15.816000000000003 0 1 0 65.976 16zM192.536 16A15.84 15.84 0 0 0 176.72 31.816A15.84 15.84 0 0 0 192.536 47.64A15.84 15.84 0 0 0 208.36 31.824A15.84 15.84 0 0 0 192.536 16z" />
    <glyph glyph-name="000047-icCatastro"
      unicode="&#xEA2F;"
      horiz-adv-x="256" d="M192.8 39.2H60.8C44 39.2 31.2 52.8 31.2 69.6V193.6C31.2 210.4 44.8 224 60.8 224H192.8C209.6 224 222.4 210.4 222.4 193.6V69.6C222.4 52.8 209.6 39.2 192.8 39.2zM60.8 204C55.2 204 50.4 199.2 50.4 192.8V68.8C50.4 63.2 55.2 57.6 60.8 57.6H192.8C198.4 57.6 203.2 62.4 203.2 68.8V193.6C203.2 199.2 198.4 204.8 192.8 204.8H60.8zM127.2 107.2C110.4 107.2 96 120.8 96 138.4C96 155.2 109.6 169.6 127.2 169.6S158.4 156 158.4 138.4C157.6 121.6 144 107.2 127.2 107.2zM127.2 150.4C120.8 150.4 115.2 144.8 115.2 138.4S120.8 126.4 127.2 126.4S139.2 132 139.2 138.4C138.4 144.8 133.6 150.4 127.2 150.4zM128 68.8L124 70.4C121.6 71.2 69.6 93.6 69.6 138.4C69.6 170.4 95.2 196 127.2 196S184.8 170.4 184.8 138.4C184.8 94.4 134.4 71.2 132 70.4L128 68.8zM127.2 176.8C106.4 176.8 88.8 159.2 88.8 138.4C88.8 112.8 117.6 95.2 128 90.4C138.4 96 165.6 112.8 165.6 138.4C164.8 159.2 148 176.8 127.2 176.8z" />
    <glyph glyph-name="000048-icCertificate"
      unicode="&#xEA30;"
      horiz-adv-x="256" d="M154.664 121.704L161.384 92.584C162.456 88 157.44 84.376 153.384 86.824L128 102.184L102.504 86.824C98.456 84.376 93.44 88 94.504 92.584L101.336 121.6L78.936 140.904A5.336 5.336 0 0 0 81.92 150.296L111.576 152.856L123.096 180.16A5.312 5.312 0 0 0 132.904 180.16L144.424 152.96L174.08 150.4A5.344 5.344 0 0 0 177.064 141.016L154.664 121.704zM44.696 208.32A21.424 21.424 0 0 1 32 188.8V138.664C32 79.464 72.96 24.104 128 10.664C183.04 24.104 224 79.464 224 138.664V188.8A21.424 21.424 0 0 1 211.304 208.32L136.64 241.496A21.2 21.2 0 0 1 119.36 241.496L44.696 208.32z" />
    <glyph glyph-name="000049-icCirculos"
      unicode="&#xEA31;"
      horiz-adv-x="256" d="M150.264 116A48.88 48.88 0 0 1 111.784 97.36A50.54399999999999 50.54399999999999 0 0 1 103.784 105.36A49.12 49.12 0 1 1 42.824 105.36A49.12799999999999 49.12799999999999 0 1 1 111.784 36.4A49.12 49.12 0 1 1 150.264 116zM45.784 143.52A27.759999999999998 27.759999999999998 0 1 0 73.544 115.68A27.840000000000003 27.840000000000003 0 0 0 45.784 143.52zM73.544 38.8A27.759999999999998 27.759999999999998 0 1 0 101.304 66.56A27.840000000000003 27.840000000000003 0 0 0 73.304 39.12L73.544 38.8zM150.504 38.8A27.759999999999998 27.759999999999998 0 1 0 178.264 66.56A27.840000000000003 27.840000000000003 0 0 0 150.264 39.12L150.504 38.8zM188.744 132.48A49.76 49.76 0 1 1 188.744 232A49.76 49.76 0 0 1 188.744 132.48z" />
    <glyph glyph-name="000050-icClose"
      unicode="&#xEA32;"
      horiz-adv-x="256" d="M148.16 163.2L128 143.04L107.84 163.2C103.68 167.36 96.96 167.36 92.8 163.2C88.64 159.04 88.64 152.32 92.8 148.16L112.96 128L92.8 107.84C88.64 103.68 88.64 96.96 92.8 92.8C96.96 88.64 103.68 88.64 107.84 92.8L128 112.96L148.16 92.8C152.32 88.64 159.04 88.64 163.2 92.8C167.36 96.96 167.36 103.68 163.2 107.84L143.04 128L163.2 148.16C167.36 152.32 167.36 159.04 163.2 163.2C159.04 167.256 152.216 167.256 148.16 163.2zM128 234.664A106.568 106.568 0 0 1 21.336 128C21.336 69.016 69.016 21.336 128 21.336S234.664 69.016 234.664 128S186.984 234.664 128 234.664zM128 42.664C80.96 42.664 42.664 80.96 42.664 128S80.96 213.336 128 213.336S213.336 175.04 213.336 128S175.04 42.664 128 42.664z" />
    <glyph glyph-name="000051-icCloseSimple"
      unicode="&#xEA33;"
      horiz-adv-x="256" d="M51.12 204.88C55.288 209.04 62.04 209.04 66.208 204.88L128 143.08L189.792 204.864A10.664 10.664 0 0 0 204.88 189.784L143.088 128L204.88 66.208A10.664 10.664 0 1 0 189.792 51.12L128 112.912L66.208 51.12A10.664 10.664 0 0 0 51.128 66.208L112.912 128L51.128 189.792A10.664 10.664 0 0 0 51.128 204.872z" />
    <glyph glyph-name="000052-icCollaboration"
      unicode="&#xEA34;"
      horiz-adv-x="256" d="M208 128C208 130.456 207.896 132.8 207.68 135.256L227.52 150.296C231.784 153.496 232.96 159.464 230.296 164.16L210.344 198.616A10.528 10.528 0 0 1 197.016 203.096L174.08 193.384A80.896 80.896 0 0 1 161.6 200.64L158.504 225.28A10.696 10.696 0 0 1 147.944 234.664H108.16A10.72 10.72 0 0 1 97.496 225.28L94.4 200.64C90.024 198.616 85.864 196.16 81.92 193.384L58.984 203.096A10.528 10.528 0 0 1 45.656 198.616L25.704 164.056A10.752 10.752 0 0 1 28.48 150.184L48.32 135.144A82.496 82.496 0 0 1 48.32 120.744L28.48 105.704C24.216 102.504 23.04 96.536 25.704 91.84L45.656 57.384A10.528 10.528 0 0 1 58.984 52.904L81.92 62.616C85.864 59.84 90.024 57.384 94.4 55.36L97.496 30.72C98.136 25.384 102.72 21.336 108.056 21.336H147.84C153.1760000000001 21.336 157.76 25.384 158.4 30.72L161.4960000000001 55.36C165.864 57.384 170.024 59.84 173.976 62.616L196.904 52.904A10.528 10.528 0 0 1 210.2400000000001 57.384L230.1840000000001 91.84A10.752 10.752 0 0 1 227.4160000000001 105.704L207.576 120.744C207.896 123.2 208 125.5440000000001 208 128zM128.424 90.664A37.376 37.376 0 0 0 91.096 128A37.376 37.376 0 0 0 128.424 165.336A37.376 37.376 0 0 0 165.76 128A37.376 37.376 0 0 0 128.424 90.664zM80 128A48 48 0 0 1 176 128A48 48 0 0 1 80 128M124 128.248C132.152 128.248 139.352 126.304 145.2 123.752C150.6 121.352 154 115.952 154 110.096V107A5.016 5.016 0 0 0 149 102H99A5.016 5.016 0 0 0 94 107V110.048C94 115.952 97.4 121.352 102.8 123.696A52.2 52.2 0 0 0 124 128.256zM84 127C89.504 127 94 131.504 94 137C94 142.504 89.496 147 84 147C78.496 147 74 142.496 74 137C74 131.496 78.504 127 84 127zM89.648 121.496A34.92 34.92 0 0 1 84 122C79.048 122 74.352 120.952 70.096 119.096C66.4 117.496 64 113.896 64 109.848V107C64 104.248 66.248 102 69 102H86.504V110.048C86.504 114.2 87.648 118.096 89.648 121.496zM164 127C169.504 127 174 131.504 174 137C174 142.504 169.496 147 164 147C158.496 147 154 142.496 154 137C154 131.496 158.504 127 164 127zM184 109.848C184 113.896 181.6 117.496 177.904 119.096A34.744 34.744 0 0 1 164 122C162.048 122 160.2 121.8 158.352 121.496C160.352 118.096 161.496 114.2 161.496 110.056V102H179A5.016 5.016 0 0 1 184 107V109.848zM124 162C132.304 162 139 155.296 139 147A14.976 14.976 0 0 0 124 132A14.976 14.976 0 0 0 109 147C109 155.296 115.704 162 124 162z" />
    <glyph glyph-name="000053-icCollapseM"
      unicode="&#xEA35;"
      horiz-adv-x="256" d="M50.136 169.384C45.976 165.224 45.976 158.504 50.136 154.344L76.48 128L50.136 101.656C45.976 97.496 45.976 90.776 50.136 86.616C54.296 82.456 61.016 82.456 65.176 86.616L98.984 120.424C103.144 124.584 103.144 131.304 98.984 135.464L65.176 169.28A10.528 10.528 0 0 1 50.136 169.384zM205.864 86.616C210.024 90.776 210.024 97.496 205.864 101.656L179.52 128L205.864 154.344C210.024 158.504 210.024 165.224 205.864 169.384A10.752 10.752 0 0 1 190.72 169.384L156.904 135.576C152.744 131.416 152.744 124.696 156.904 120.536L190.72 86.72C194.88 82.456 201.704 82.456 205.864 86.616z" />
    <glyph glyph-name="000054-icComentarios"
      unicode="&#xEA36;"
      horiz-adv-x="256" d="M32 128C32 181.016 74.984 224 128 224S224 181.016 224 128V73.384C224 69.136 224 65.464 223.808 62.424C223.616 59.224 223.176 56.024 221.984 52.824A32 32 0 0 0 203.184 34.024C199.984 32.824 196.776 32.384 193.576 32.184C190.536 32 186.864 32 182.616 32H128C74.984 32 32 74.984 32 128zM128 202.664A74.664 74.664 0 1 1 128 53.336H182.304C186.944 53.336 189.952 53.336 192.256 53.48C194.472 53.616 195.32 53.856 195.728 54.008C198.624 55.088 200.912 57.368 201.992 60.272C202.152 60.672 202.384 61.528 202.52 63.744C202.664 66.048 202.664 69.048 202.664 73.696V128A74.664 74.664 0 0 1 128 202.664zM85.336 138.664C85.336 144.56 90.112 149.336 96 149.336H160A10.664 10.664 0 1 0 160 128H96A10.664 10.664 0 0 0 85.336 138.664zM117.336 96C117.336 101.888 122.112 106.664 128 106.664H160A10.664 10.664 0 0 0 160 85.336H128A10.664 10.664 0 0 0 117.336 96z" />
    <glyph glyph-name="000055-icCompartir"
      unicode="&#xEA37;"
      horiz-adv-x="256" d="M192 84.48C183.896 84.48 176.64 81.28 171.096 76.264L95.04 120.536C95.576 122.984 96 125.44 96 128C96 130.56 95.576 133.016 95.04 135.464L170.24 179.304A31.864 31.864 0 0 1 192 170.664C209.704 170.664 224 184.96 224 202.664C224 220.376 209.704 234.664 192 234.664S160 220.376 160 202.664C160 200.104 160.424 197.656 160.96 195.2L85.76 151.36A31.864 31.864 0 0 1 64 160C46.296 160 32 145.704 32 128S46.296 96 64 96C72.424 96 80 99.304 85.76 104.64L161.704 60.264C161.176 58.024 160.856 55.68 160.856 53.336A31.184000000000005 31.184000000000005 0 0 1 192 22.184A31.184000000000005 31.184000000000005 0 0 1 223.144 53.336A31.184000000000005 31.184000000000005 0 0 1 192 84.48zM192 213.336C197.864 213.336 202.664 208.536 202.664 202.664C202.664 196.8 197.864 192 192 192S181.336 196.8 181.336 202.664C181.336 208.536 186.136 213.336 192 213.336zM64 117.336C58.136 117.336 53.336 122.136 53.336 128S58.136 138.664 64 138.664S74.664 133.864 74.664 128S69.864 117.336 64 117.336zM192 42.456C186.136 42.456 181.336 47.256 181.336 53.12S186.136 63.784 192 63.784S202.664 58.984 202.664 53.12S197.864 42.456 192 42.456z" />
    <glyph glyph-name="000056-icCompartirProp"
      unicode="&#xEA38;"
      horiz-adv-x="256" d="M222.376 97.272A15.120000000000001 15.120000000000001 0 0 1 204.376 98.872L180.376 83.272L179.416 84.712L178.696 85.592A16.72 16.72 0 0 1 165.496 92.072H143.976A20.48 20.48 0 0 0 133.656 94.952L126.696 99.032A26.888 26.888 0 0 1 100.456 99.592L33.336 63.672A17.76 17.76 0 0 1 28.216 36.552L45.256 16.552A17.28 17.28 0 0 1 57.416 10.312H58.776A17.2 17.2 0 0 1 70.376 14.712L87.576 29.672L103.096 42.632A6.24 6.24 0 0 0 109.896 43.432L124.056 36.392A28.4 28.4 0 0 1 141.816 33.752L168.696 38.472A46 46 0 0 1 189.736 48.072L221.736 74.392A14.959999999999999 14.959999999999999 0 0 1 227.256 85.752A15.28 15.28 0 0 1 222.376 97.272zM179.576 60.392A29.76 29.76 0 0 0 165.896 54.152L139.096 49.432A12.4 12.4 0 0 0 131.096 50.632L117.016 57.672A22.32 22.32 0 0 1 93.016 54.872L77.016 41.752L59.736 26.712A1.68 1.68 0 0 0 57.256 26.712L40.296 46.712A1.6 1.6 0 0 0 39.896 48.152A1.5200000000000005 1.5200000000000005 0 0 0 40.776 49.352L107.816 85.352A10.56 10.56 0 0 0 112.936 86.632C114.856 86.6479999999999 116.744 86.12 118.376 85.1119999999999L125.336 81.0319999999999C130.912 77.6799999999999 137.304 75.9119999999999 143.816 75.9119999999999H165.576L166.216 75.0319999999999V73.9119999999999L136.776 70.2319999999999L138.776 54.2319999999999L168.216 57.9119999999999A16.56 16.56 0 0 1 177.896 62.6319999999999L199.896 76.7119999999999L179.576 60.3919999999999zM66.696 147.112A135.36 135.36 0 0 1 67.256 131.112A21.28 21.28 0 0 1 72.936 118.472C76.392 115.224 80.848 113.256 85.576 112.872C90.888 112.36 96.232 112.176 101.576 112.312H144.856C150.192 112.184 155.536 112.368 160.856 112.872A19.2 19.2 0 0 1 179.096 131.112C179.6 136.424 179.784 141.768 179.656 147.112V179.112A34 34 0 0 1 163.656 214.472L162.696 215.352L155.256 221.672A173.016 173.016 0 0 1 139.256 234.552A25.28 25.28 0 0 1 107.896 234.552A184.06400000000002 184.06400000000002 0 0 1 91.896 221.672L84.856 215.672L83.816 214.792A49.2 49.2 0 0 1 70.136 199.672A48.56 48.56 0 0 1 67.576 179.432V147.432L66.696 147.112zM133.736 126.392H112.536V154.632H133.736V126.392zM80.856 177.512A39.12 39.12 0 0 0 82.136 193.512C83.256 195.992 85.336 197.992 93.176 204.712L100.216 210.712A164.112 164.112 0 0 0 115.256 222.872A14.319999999999999 14.319999999999999 0 0 0 123.256 225.912A13.920000000000002 13.920000000000002 0 0 0 131.256 222.872C136.536 219.12 141.576 215.064 146.376 210.712L153.416 204.712C161.416 197.992 163.336 195.992 164.456 193.512C165.936 188.312 166.376 182.872 165.736 177.512V147.592A114.15999999999998 114.15999999999998 0 0 0 165.256 133.032C164.856 129.992 164.216 129.032 163.656 128.472C163.096 127.912 162.136 127.272 159.096 126.872A79.52 79.52 0 0 0 148.056 126.392V154.632A14.079999999999998 14.079999999999998 0 0 1 133.976 168.712H112.776A14.079999999999998 14.079999999999998 0 0 1 98.696 154.632V126.392A81.04 81.04 0 0 0 87.656 126.872C84.616 127.272 83.656 127.912 83.096 128.472A8 8 0 0 0 81.496 133.032A137.096 137.096 0 0 0 81.096 147.592L80.856 177.512z" />
    <glyph glyph-name="000057-icConexion"
      unicode="&#xEA3A;"
      horiz-adv-x="256" d="M126.024 158.416A31.648 31.648 0 1 1 126.024 95.12A31.648 31.648 0 0 1 126.024 158.416zM76.8 126.768A49.232000000000006 49.232000000000006 0 1 0 175.264 126.768A49.232000000000006 49.232000000000006 0 0 0 76.8 126.768zM203.52 222.288A18.904 18.904 0 1 1 203.52 184.48A18.904 18.904 0 0 1 203.52 222.288zM167.04 203.384A36.48 36.48 0 1 0 240 203.384A36.48 36.48 0 0 0 167.04 203.384zM203.52 71.648A18.904 18.904 0 1 1 203.52 33.848A18.904 18.904 0 0 1 203.52 71.648zM167.04 52.744A36.48 36.48 0 1 0 240 52.744A36.48 36.48 0 0 0 167.04 52.744zM52.48 71.384A18.904 18.904 0 1 1 52.48 33.584A18.904 18.904 0 0 1 52.48 71.384zM16 52.488A36.48 36.48 0 1 0 88.968 52.488A36.48 36.48 0 0 0 16 52.488zM52.656 222.416A18.904 18.904 0 1 1 52.656 184.616A18.904 18.904 0 0 1 52.656 222.416zM16.176 203.52A36.48 36.48 0 1 0 89.136 203.52A36.48 36.48 0 0 0 16.176 203.52zM151.68 164.152L177.6 190.08L190.04 177.64L164.104 151.712L151.672 164.144zM108.984 96.592L74.568 62.176L62.136 74.608L96.552 109.024L108.984 96.592zM163.672 104.808L189.6 78.88L177.16 66.448L151.232 92.384L163.664 104.816zM92.864 150.752L60.2 183.408L72.64 195.84L105.296 163.184L92.864 150.752z" />
    <glyph glyph-name="000058-icConferenciaSolicitar"
      unicode="&#xEA39;"
      horiz-adv-x="256" d="M181.336 144V181.336C181.336 187.2 176.536 192 170.664 192H42.664C36.8 192 32 187.2 32 181.336V74.664C32 68.8 36.8 64 42.664 64H170.664C176.536 64 181.336 68.8 181.336 74.664V112L205.76 87.576C212.48 80.856 224 85.656 224 95.144V160.96C224 170.456 212.48 175.256 205.76 168.536L181.336 144zM138.664 117.336H117.336V96C117.336 90.136 112.536 85.336 106.664 85.336C100.8 85.336 96 90.136 96 96V117.336H74.664C68.8 117.336 64 122.136 64 128S68.8 138.664 74.664 138.664H96V160C96 165.864 100.8 170.664 106.664 170.664C112.536 170.664 117.336 165.864 117.336 160V138.664H138.664C144.536 138.664 149.336 133.864 149.336 128S144.536 117.336 138.664 117.336z" />
    <glyph glyph-name="000059-icConferenciaSolicitarBola"
      unicode="&#xEA3B;"
      horiz-adv-x="256" d="M0 128C0 198.696 57.304 256 128 256S256 198.696 256 128S198.696 0 128 0S0 57.304 0 128zM165.92 140.448V169.488A8.32 8.32 0 0 1 157.632 177.776H58.072A8.32 8.32 0 0 1 49.776 169.48V86.52C49.776 81.96 53.512 78.224 58.072 78.224H157.632A8.32 8.32 0 0 1 165.928 86.52V115.56L184.928 96.56C190.152 91.328 199.112 95.064 199.112 102.448V153.632C199.112 161.016 190.152 164.752 184.928 159.528L165.928 140.44zM132.744 119.704H116.144V103.112A8.32 8.32 0 0 0 107.848 94.816A8.32 8.32 0 0 0 99.552 103.112V119.704H82.96A8.32 8.32 0 0 0 74.664 128C74.664 132.56 78.4 136.296 82.96 136.296H99.552V152.888C99.552 157.448 103.288 161.184 107.848 161.184C112.408 161.184 116.144 157.448 116.144 152.888V136.296H132.744C137.304 136.296 141.04 132.56 141.04 128A8.32 8.32 0 0 0 132.744 119.704z" />
    <glyph glyph-name="000060-icContactoCorreoExterno"
      unicode="&#xEA3C;"
      horiz-adv-x="256" d="M157.096 234.664A32 32 0 1 1 157.096 170.664A32 32 0 0 1 157.096 234.664zM103.76 202.664A53.33599999999999 53.33599999999999 0 1 0 210.432 202.664A53.33599999999999 53.33599999999999 0 0 0 103.76 202.664zM151.944 128H152C211.624 128 242.696 92.72 251.08 72.616A12 12 0 1 0 228.92 63.384C223.968 75.28 201.176 104 152 104C140.552 104 127.28 103.976 110.176 93.712A12 12 0 1 0 97.824 114.288C120.68 128 139.392 128 151.944 128zM52.248 112L67.944 96.376L42.496 71.048H148.896C155.032 71.048 160 66.104 160 60S155.032 48.96 148.904 48.96H42.496L67.944 23.624L52.248 8L0 60L52.248 112z" />
    <glyph glyph-name="000061-icContraer"
      unicode="&#xEA3D;"
      horiz-adv-x="256" d="M24.456 231.544C28.616 235.704 35.376 235.704 39.544 231.544L85.336 185.752V213.336H106.664V149.336H42.664V170.664H70.248L24.456 216.456A10.664 10.664 0 0 0 24.456 231.544zM231.544 231.544C235.704 227.384 235.704 220.624 231.544 216.456L185.752 170.664H213.336V149.336H149.336V213.336H170.664V185.752L216.456 231.544C220.616 235.704 227.376 235.704 231.544 231.544zM42.664 106.664H106.664V42.664H85.336V70.248L39.544 24.456A10.664 10.664 0 1 0 24.456 39.544L70.248 85.336H42.664V106.664zM149.336 106.664H213.336V85.336H185.752L231.544 39.544A10.664 10.664 0 0 0 216.456 24.456L170.664 70.248V42.664H149.336V106.664z" />
    <glyph glyph-name="000062-icContraerMvl"
      unicode="&#xEA3F;"
      horiz-adv-x="256" d="M50.136 169.384C45.976 165.224 45.976 158.504 50.136 154.344L76.48 128L50.136 101.656C45.976 97.496 45.976 90.776 50.136 86.616C54.296 82.456 61.016 82.456 65.176 86.616L98.984 120.424C103.144 124.584 103.144 131.304 98.984 135.464L65.176 169.28A10.528 10.528 0 0 1 50.136 169.384zM205.864 86.616C210.024 90.776 210.024 97.496 205.864 101.656L179.52 128L205.864 154.344C210.024 158.504 210.024 165.224 205.864 169.384A10.752 10.752 0 0 1 190.72 169.384L156.904 135.576C152.744 131.416 152.744 124.696 156.904 120.536L190.72 86.72C194.88 82.456 201.704 82.456 205.864 86.616z" />
    <glyph glyph-name="000063-icConversorOff"
      unicode="&#xEA40;"
      horiz-adv-x="256" d="M240 125.6C240 187.2 189.6 237.6 128 237.6C101.6 237.6 76.8 228 57.6 212.8C52.8 216 46.4 216 42.4 212C38.4 207.2 37.6 200.8 40.8 196.8C25.6 177.6 16 152.8 16 125.6C16 64 66.4 13.6 128 13.6C154.4 13.6 179.2 23.2 198.4 38.4C200.8 36.8 202.4 36 204.8 36C208 36 211.2 36.8 213.6 39.2C217.6 43.2 218.4 49.6 214.4 54.4C230.4000000000001 74.4 240.0000000000001 99.2 240.0000000000001 125.6zM217.6 125.6C217.6 104.8 210.4 86.4 199.2 71.2L156 114.4H161.6V136.8H133.6L116.8 153.6C127.2 160.8 141.6 160.8 151.2 152.8L170.4 165.6C162.4 174.4 151.2 180 139.2 181.6C124.8 183.2 111.2 178.4 100.8 169.6L73.6 196.8C88.8 208 107.2 215.2 128 215.2C177.6 215.2 217.6 175.2 217.6 125.6zM122.4 114.4L143.2 93.6C141.6 92.8 140.8 92.8 139.2 92C124 88.8 109.6 98.4 106.4 113.6H122.4V114.4zM38.4 125.6C38.4 146.4 45.6 164.8 56.8 180L86.4 150.4C84.8 146.4 83.2 141.6 83.2 137.6H72V115.2H83.2C84.8 103.2 90.4 92 99.2 84C116 68.8 140.8 66.4 159.2 78.4L181.6 56C166.4 44.8 148 37.6 127.2 37.6C78.4 36 38.4 76.8 38.4 125.6z" />
    <glyph glyph-name="000064-icCopiar"
      unicode="&#xEA3E;"
      horiz-adv-x="256" d="M68.752 195.2V228.792C68.752 234.952 73.76 240 79.968 240H214.368C220.528 240 225.576 235 225.576 228.792V72C225.576 65.84 220.576 60.792 214.368 60.792H180.776V27.2C180.776 21.04 175.736 15.992 169.52 15.992H35.256A11.152 11.152 0 0 0 24 27.168V183.992C24 190.152 29.04 195.2 35.256 195.2H68.752zM46.376 172.776V38.376H158.4V172.776H46.376zM91.176 195.2H180.776V83.176H203.2V217.576H91.176V195.2zM68.752 139.192H135.928V116.768H68.752V139.192zM68.752 94.392H135.928V71.968H68.752V94.392z" />
    <glyph glyph-name="000065-icCopiarColaboradores"
      unicode="&#xEA41;"
      horiz-adv-x="256" d="M160 42.664H53.336V181.336C53.336 187.2 48.536 192 42.664 192C36.8 192 32 187.2 32 181.336V42.664C32 30.936 41.6 21.336 53.336 21.336H160C165.864 21.336 170.664 26.136 170.664 32S165.864 42.664 160 42.664zM213.336 85.336V213.336C213.336 225.064 203.736 234.664 192 234.664H96A21.392 21.392 0 0 1 74.664 213.336V85.336C74.664 73.6 84.264 64 96 64H192C203.736 64 213.336 73.6 213.336 85.336zM192 85.336H96V213.336H192V85.336z" />
    <glyph glyph-name="000066-icCorreoELlamada"
      unicode="&#xEA42;"
      horiz-adv-x="256" d="M50.64 186.272A47.688 47.688 0 0 1 46.872 124.608L59.472 107.8A234.672 234.672 0 0 1 106.408 60.864L123.208 48.264A47.688 47.688 0 0 1 184.88 52.032L157.304 79.608L146.416 68.72A16.352 16.352 0 0 0 127.536 65.656A141.48 141.48 0 0 0 64.256 128.928A16.352 16.352 0 0 0 67.328 147.808L78.216 158.688L50.648 186.272zM36.216 202.032A20.4 20.4 0 0 0 65.056 202.032L93.304 173.784A21.336 21.336 0 0 0 93.304 143.608L84.984 135.288A120.14400000000002 120.14400000000002 0 0 1 133.904 86.384L142.224 94.696A21.336 21.336 0 0 0 172.384 94.696L200.64 66.456A20.4 20.4 0 0 0 200.64 37.608A69.024 69.024 0 0 0 110.416 31.2L93.616 43.8A256.016 256.016 0 0 0 42.416 95L29.808 111.8A69.024 69.024 0 0 0 36.216 202.024zM237 180A57 57 0 0 1 123 180V147.576C123 145.048 123 142.872 123.112 141.064C123.232 139.168 123.488 137.264 124.2 135.36C126.12 130.2 130.2 126.12 135.36 124.2C137.264 123.488 139.168 123.232 141.064 123.112C142.872 123 145.048 123 147.576 123H180A57 57 0 0 1 237 180zM180 224.336A44.336 44.336 0 1 0 180 135.664H147.76C145 135.664 143.216 135.664 141.848 135.752A7.408 7.408 0 0 0 139.784 136.072A6.336 6.336 0 0 0 136.064 139.784A7.408 7.408 0 0 0 135.752 141.848A106.8 106.8 0 0 0 135.672 147.76V180A44.336 44.336 0 0 0 180 224.336zM205.336 186.336A6.336 6.336 0 0 1 199 192.664H161A6.336 6.336 0 1 1 161 180H199A6.336 6.336 0 0 1 205.336 186.336zM186.336 161A6.336 6.336 0 0 1 180 167.336H161A6.336 6.336 0 1 1 161 154.664H180A6.336 6.336 0 0 1 186.336 161z" />
    <glyph glyph-name="000067-icCorreoM"
      unicode="&#xEA43;"
      horiz-adv-x="256" d="M84.632 202.664H171.36C180.816 202.664 188.96 202.664 195.488 201.784C202.48 200.848 209.184 198.728 214.616 193.296C220.056 187.856 222.176 181.152 223.12 174.16C224 167.64 224 159.488 223.992 150.032V105.968C223.992 96.512 223.992 88.368 223.112 81.84C222.176 74.848 220.056 68.144 214.616 62.704C209.176 57.264 202.48 55.152 195.496 54.208C188.968 53.328 180.816 53.328 171.36 53.328H84.64C75.184 53.328 67.04 53.328 60.512 54.208C53.52 55.152 46.816 57.272 41.384 62.704C35.944 68.144 33.824 74.848 32.888 81.84C32 88.36 32 96.512 32 105.968V149.328V150.032C32 159.496 32 167.632 32.88 174.16C33.816 181.152 35.936 187.856 41.376 193.296C46.816 198.736 53.512 200.848 60.504 201.792C67.032 202.672 75.176 202.672 84.632 202.672zM63.352 180.648C58.72 180.024 57.272 179.024 56.456 178.208C55.648 177.4 54.64 175.944 54.016 171.328C53.36 166.384 53.336 159.688 53.336 149.328V106.664C53.336 96.312 53.36 89.616 54.016 84.68C54.64 80.056 55.648 78.6 56.456 77.792C57.272 76.976 58.72 75.976 63.344 75.352C68.28 74.688 74.976 74.664 85.336 74.664H170.664C181.024 74.664 187.72 74.688 192.656 75.352C197.28 75.976 198.736 76.976 199.536 77.792C200.352 78.6 201.36 80.056 201.984 84.68C202.64 89.616 202.664 96.312 202.664 106.664V149.336C202.664 159.688 202.648 166.384 201.984 171.32C201.36 175.944 200.352 177.4 199.544 178.208C198.728 179.024 197.28 180.024 192.656 180.648C187.72 181.312 181.024 181.336 170.664 181.336H85.336C74.976 181.336 68.28 181.312 63.344 180.648zM113.688 112.56L37.896 150.456L47.44 169.544L123.232 131.648C126.232 130.144 129.768 130.144 132.768 131.648L208.56 169.544L218.104 150.456L142.312 112.56A32 32 0 0 0 113.688 112.56z" />
    <glyph glyph-name="000068-icCruces"
      unicode="&#xEA44;"
      horiz-adv-x="256" d="M78.304 85.904C72.144 85.344 64.28 85.336 52.912 85.336H34.4C28.656 85.336 24 80.56 24 74.664C24 68.776 28.656 64 34.4 64H53.376C64.176 64 72.944 64 80.136 64.648C87.6 65.328 94.168 66.752 100.368 70.088A52.128 52.128 0 0 1 113.44 80.064C118.336 85.2 121.552 91.24 124.328 98.384C127.008 105.248 129.528 113.872 132.624 124.48L132.76 124.936C136.032 136.104 138.296 143.824 140.592 149.72C142.816 155.448 144.776 158.656 147.032 161.032C149.328 163.432 151.976 165.456 154.88 167.016C157.744 168.552 161.304 169.56 167.296 170.096C173.456 170.656 181.32 170.664 192.688 170.664H196.496L183.04 156.88A10.864 10.864 0 0 1 183.04 141.792C187.096 137.632 193.68 137.632 197.744 141.792L228.944 173.792A10.864 10.864 0 0 1 228.944 188.872L197.744 220.872A10.216 10.216 0 0 1 183.04 220.872A10.864 10.864 0 0 1 183.04 205.792L196.48 192H192.216C181.416 192 172.648 192 165.456 191.352C157.992 190.672 151.424 189.248 145.224 185.912A52.112 52.112 0 0 1 132.152 175.936C127.256 170.8 124.04 164.76 121.264 157.616C118.584 150.752 116.064 142.128 112.968 131.52L112.832 131.064C109.56 119.896 107.296 112.176 105 106.28C102.776 100.552 100.816 97.344 98.56 94.968A31.279999999999998 31.279999999999998 0 0 0 90.712 88.984C87.848 87.448 84.288 86.44 78.296 85.904zM111.736 127.304L112.456 124.936L112.584 124.48C115.768 113.872 118.352 105.248 121.096 98.376C121.624 97.056 122.168 95.768 122.736 94.52C123.288 95.768 123.816 97.056 124.336 98.376C127.008 105.256 129.528 113.8720000000001 132.624 124.472L132.76 124.936L133.728 128.2480000000001L132.88 131.064L132.744 131.5200000000001C129.568 142.1280000000001 126.984 150.7520000000001 124.24 157.624C123.76 158.84 123.256 160.0240000000001 122.736 161.184C122.232 160.0320000000001 121.744 158.84 121.264 157.624C118.6 150.744 116.072 142.1280000000001 112.976 131.528L112.84 131.064L111.736 127.304zM118.032 169.808A42.968 42.968 0 0 1 113.072 175.936A53.36 53.36 0 0 1 99.656 185.912C93.296 189.248 86.568 190.672 78.904 191.352C71.544 192 62.536 192 51.464 192H32A10.664 10.664 0 0 1 32 170.664H50.984C62.648 170.664 70.712 170.664 77.032 170.104C83.176 169.56 86.832 168.552 89.768 167.016C92.744 165.456 95.456 163.432 97.808 161.032C100.128 158.664 102.136 155.448 104.424 149.72C105.416 147.232 106.4 144.416 107.464 141.16C109.648 148.536 111.672 155.024 113.808 160.52C115.056 163.72 116.424 166.832 118.032 169.808zM138.008 114.416C135.872 107.216 133.888 100.872 131.792 95.48C130.512 92.2 129.104 89.016 127.448 85.968C128.872 83.88 130.456 81.912 132.264 80.064C136.184 76.048 140.704 72.688 145.672 70.088C152.04 66.752 158.768 65.328 166.424 64.648C173.8 64 182.8 64 193.864 64H198.248L184.456 50.208A10.664 10.664 0 1 1 199.544 35.12L231.544 67.12C235.704 71.288 235.704 78.04 231.544 82.208L199.544 114.208A10.664 10.664 0 1 1 184.456 99.12L198.248 85.336H194.352C182.688 85.336 174.624 85.336 168.304 85.896C162.16 86.44 158.504 87.448 155.568 88.984A31.975999999999996 31.975999999999996 0 0 0 147.52 94.968C145.208 97.344 143.2 100.552 140.912 106.28A139.12 139.12 0 0 0 138.008 114.416z" />
    <glyph glyph-name="000069-icCuentagotas"
      unicode="&#xEA45;"
      horiz-adv-x="256" d="M220.904 195.944L195.944 220.904C191.784 225.064 185.064 225.064 180.904 220.904L147.624 187.624L134.504 200.536A10.72 10.72 0 0 1 119.464 200.536C115.304 196.376 115.304 189.656 119.464 185.496L127.144 177.816L33.6 84.264A5.24 5.24 0 0 1 32 80.424V37.336A5.28 5.28 0 0 1 37.336 32H80.424A5 5 0 0 1 84.16 33.6L177.704 127.144L185.384 119.464C189.544 115.304 196.264 115.304 200.424 119.464C204.584 123.624 204.584 130.344 200.424 134.504L187.416 147.52L220.696 180.8A10.56 10.56 0 0 1 220.904 195.944zM73.816 53.336L53.336 73.816L139.304 159.784L159.784 139.304L73.816 53.336z" />
    <glyph glyph-name="000070-icCursos"
      unicode="&#xEA47;"
      horiz-adv-x="256" d="M122.744 223.304L23.68 178.896L122.744 134.488L225.224 178.888L122.744 223.304zM115.032 242.352A18.831999999999997 18.831999999999997 0 0 0 130.216 242.448L237.016 196.168C246.128 192.224 249.752 182.864 247.88 174.616H248.4880000000001V42.816A17.12 17.12 0 1 0 227.944 42.816V157.68L214.248 151.744V98.864C214.248 91.424 209.872 84.68 203.072 81.656L134.512 51.176C129.76 49.072 124.352 49.016 119.552 51.032L46.896 81.632A18.831999999999997 18.831999999999997 0 0 0 35.376 98.984V151.136L11.792 161.696C-3.04 168.352 -3.04 189.416 11.792 196.064L115.04 242.352zM55.912 141.936V100.128L126.84 70.264L193.712 99.984V142.848L130.216 115.336A18.831999999999997 18.831999999999997 0 0 0 115.032 115.432L55.912 141.936z" />
    <glyph glyph-name="000071-icDashared"
      unicode="&#xEA46;"
      horiz-adv-x="256" d="M119 215.291C100.012 211.972 82.343 203.013 72.314 191.619C69.013 187.869 67.644 187.072 63.455 186.462C50.432 184.563 40.444 177.479 35.308 166.5C32.962 161.485 32.503 159.186 32.511 152.5C32.518 145.815 32.992 143.473 35.395 138.253C38.06 132.463 43 126.825 48.758 123C50.271 121.996 51.512 119.517 52.514 115.5C54.619 107.067 62.003 92.592 67.817 85.5C77.542 73.639 95.617 61.796 108.338 58.949C113.159 57.87 114.58 56.999 117.674 53.222C131.169 36.753 154.799 35.789 169.201 51.119C173.768 55.981 178 64.658 178 69.161C178 70.421 181.487 74.894 186.799 80.451C205.775 100.301 213.524 126.601 207.988 152.376C207.235 155.883 207.517 156.787 210.951 161.876C216.871 170.648 218.779 178.911 216.942 187.815C213.981 202.163 204.228 212.15 190.368 215.027C182.987 216.56 175.719 215.573 168.201 212.017L162.126 209.144L157.273 210.988C146.529 215.071 129.009 217.04 119 215.291M143.437 198.496C147.252 197.688 150.788 196.612 151.295 196.105C151.856 195.544 151.713 193.684 150.929 191.342C150.221 189.229 149.681 184.46 149.729 180.745C149.889 168.31 157.529 156.562 169 151.113C173.691 148.884 175.852 148.5 183.688 148.5L192.876 148.5L193.54 141.413C195.09 124.878 189.322 107.076 178.34 94.5C174.948 90.616 174.805 90.558 173.404 92.5C161.544 108.938 140.476 112.909 124.688 101.684C116.571 95.913 112.945 89.791 110.52 77.76L109.967 75.021L105.18 76.84C90.689 82.346 74.869 98.783 69.549 113.86L68.094 117.985L70.797 118.593C79.078 120.454 81.321 121.392 86.125 125.002C103.166 137.806 104.844 162.348 89.679 176.962L85.049 181.423L87.245 183.761C90.572 187.302 99.68 193.069 105.4 195.256C117.697 199.957 131.134 201.102 143.437 198.496" />
    <glyph glyph-name="000072-icDashboard"
      unicode="&#xEA48;"
      horiz-adv-x="256" d="M97.68 138.8H59.12A19.12 19.12 0 0 0 40 157.92V196.88A19.12 19.12 0 0 0 59.12 216H98.08A19.12 19.12 0 0 0 117.2 196.88V157.92A19.104 19.104 0 0 0 97.68 138.8zM60.96 160.16H95.44V194.64H60.96V160.16zM200.08 175.04H161.12A19.12 19.12 0 0 1 142 155.92V119.2H105.28A19.2 19.2 0 0 1 86.16 100.08V61.12A19.2 19.2 0 0 1 105.28 42H200.08A19.12 19.12 0 0 1 219.2 61.12V155.92A19.12 19.12 0 0 1 200.08 175.04zM107.52 97.84H142V63.36H107.52V97.84zM197.84 63.36H163.12V97.84H197.6L197.84 63.36zM163.36 119.36V153.84H197.84V119.36H163.36z" />
    <glyph glyph-name="000073-icDefaultSeguimientos"
      unicode="&#xEA49;"
      horiz-adv-x="256" d="M199.2 204.8H182.4V224.8C182.4 230.4 177.6 235.2 172 235.2C166.4 235.2 161.6 230.4 161.6 224.8V204H96V224.8C96 230.4 91.2 235.2 85.6 235.2C80 235.2 75.2 230.4 75.2 224.8V204H56.8C37.6 204 22.4 188.8 22.4 169.6V54.4C22.4 35.2 37.6 20 56.8 20H199.2C218.4 20 233.6 35.2 233.6 54.4V170.4C233.6 188.8 218.4 204.8 199.2 204.8zM214.4 55.2C214.4 46.4 207.2 40 199.2 40H56.8C48 40 41.6 47.2 41.6 55.2V170.4C41.6 179.2 48.8 185.6 56.8 185.6H75.2V182.4C75.2 176.8 80 172 85.6 172C91.2 172 96 176.8 96 182.4V185.6H161.6V182.4C161.6 176.8 166.4 172 172 172C177.6 172 182.4 176.8 182.4 182.4V185.6H199.2C208 185.6 214.4 178.4 214.4 170.4V55.2zM107.2 70.4C104 70.4 100.8 71.2 97.6 73.6L75.2 90.4C72 92.8 71.2 98.4 73.6 101.6C76 104.8 81.6 105.6 84.8 103.2L107.2 86.4L165.6 156.8C168.8 160 173.6 160.8 176.8 157.6C180 154.4 180.8 149.6 177.6 146.4L118.4 76C116 72 111.2 70.4 107.2 70.4z" />
    <glyph glyph-name="000074-icDeGrupo"
      unicode="&#xEA4B;"
      horiz-adv-x="256" d="M96 128C118.056 128 136 145.944 136 168S118.056 208 96 208S56 190.056 56 168S73.944 128 96 128zM96 185.144A17.12 17.12 0 0 0 113.144 168A17.12 17.12 0 0 0 96 150.856A17.12 17.12 0 0 0 78.856 168A17.12 17.12 0 0 0 96 185.144zM96 108C69.256 108 16 94.632 16 68V59.432C16 53.144 21.144 48 27.432 48H164.56C170.848 48 175.992 53.144 175.992 59.432V68C175.992 94.632 122.736 108 95.992 108zM42.744 70.856C52.344 77.488 75.544 85.144 96 85.144C116.456 85.144 139.656 77.488 149.256 70.856H42.744zM176.456 107.312C189.712 97.712 198.856 84.912 198.856 68V48H233.144C239.432 48 244.568 53.144 244.568 59.432V68C244.568 91.088 204.568 104.232 176.456 107.312zM164.568 128C186.632 128 204.568 145.944 204.568 168S186.632 208 164.568 208C158.4 208 152.688 206.512 147.432 204A62.175999999999995 62.175999999999995 0 0 0 158.856 168A62.175999999999995 62.175999999999995 0 0 0 147.432 132C152.688 129.488 158.4 128 164.568 128z" />
    <glyph glyph-name="000075-icDemandasM"
      unicode="&#xEA4A;"
      horiz-adv-x="256" d="M166.08 240A30.56 30.56 0 0 1 135.6 209.44V190.96A29.599999999999998 29.599999999999998 0 0 1 126.4 192.56A30.56 30.56 0 0 1 106.4 184.96A30.32 30.32 0 0 1 56 162V90.96A70.32 70.32 0 0 1 196.56 90.96V209.44A30.56 30.56 0 0 1 166.08 240zM156.64 209.44A9.12 9.12 0 1 0 174.88 209.44V128.08L172 130.96A30.159999999999997 30.159999999999997 0 0 1 156 139.36C156.512 141.56 156.784 143.816 156.8000000000001 146.08V148.56L156.6400000000001 209.44zM116.64 162A9.2 9.2 0 1 0 134.96 162V146A9.2 9.2 0 1 0 116.64 146V162zM76.64 162A9.12 9.12 0 0 0 94.88 162V146A9.12 9.12 0 0 0 76.64 146V162zM125.6 42A48.96 48.96 0 0 0 76.64 90.88V117.04A28.72 28.72 0 0 1 85.76 115.44A30 30 0 0 1 105.68 123.44A30.240000000000002 30.240000000000002 0 0 1 120.4 116.32A30.400000000000002 30.400000000000002 0 0 1 128.4 88.08L141.84 74.64L156.96 89.76L143.5200000000001 103.12A9.2 9.2 0 0 0 156.4800000000001 116.08L174.4 98.08V91.2A48.96 48.96 0 0 0 126.32 42.08L125.6 42z" />
    <glyph glyph-name="000076-icDescargar"
      unicode="&#xEA4C;"
      horiz-adv-x="256" d="M67.12 152.456L82.208 167.544L117.328 132.424V202.664A10.664 10.664 0 1 0 138.664 202.664V132.424L173.784 167.544L188.872 152.456L127.992 91.576L67.12 152.456zM64 85.336V74.664C64 68.776 68.776 64 74.664 64H181.336C187.224 64 192 68.776 192 74.664V85.336H213.336V74.664A32 32 0 0 0 181.336 42.664H74.664A32 32 0 0 0 42.664 74.664V85.336H64z" />
    <glyph glyph-name="000077-icDestacado"
      unicode="&#xEA4D;"
      horiz-adv-x="256" d="M128.304 240C79.616 240 40 200.384 40 151.688C40 121.344 55.384 94.528 78.768 78.624V22.464A6.456 6.456 0 0 1 87.888 16.568L128.304 34.7600000000001L168.736 16.568A6.48 6.48 0 0 1 177.848 22.464V78.624C201.224 94.528 216.616 121.344 216.616 151.688C216.616 200.384 177 240 128.304 240zM164.92 32.456L130.96 47.736A6.464000000000001 6.464000000000001 0 0 1 125.656 47.736L91.688 32.456V71.32C94.936 69.84 98.272 68.568 101.672 67.496L102.248 67.312A83.896 83.896 0 0 1 107.688 65.824A92.88 92.88 0 0 1 111.448 65.008L112.088 64.88L113.768 64.584L114.352 64.488L116.104 64.232L116.648 64.152C117.24 64.072 117.832 64.008 118.424 63.944L118.96 63.88C119.552 63.816 120.144 63.76 120.744 63.712L121.288 63.664C121.872 63.616 122.464 63.584 123.056 63.544L123.632 63.512L125.424 63.432L125.968 63.416A90.88000000000001 90.88000000000001 0 0 1 130.648 63.416C130.832 63.416 131.008 63.432 131.192 63.44L132.992 63.512C133.176 63.512 133.368 63.536 133.552 63.544L135.328 63.664L135.8720000000001 63.712L137.656 63.872L138.192 63.944C138.7840000000001 64.008 139.3840000000001 64.08 139.976 64.16L140.512 64.232C141.096 64.312 141.68 64.392 142.2640000000001 64.488L142.84 64.584A89.024 89.024 0 0 1 154.368 67.304L154.944 67.496C158.344 68.568 161.68 69.84 164.928 71.32V32.456zM152.904 80.432L152.136 80.168A72.928 72.928 0 0 0 149.568 79.368L148.584 79.08A73.64 73.64 0 0 0 146.744 78.592L146.048 78.424A73.912 73.912 0 0 0 144.224 77.9999999999999L143.768 77.9039999999999C142.984 77.7439999999999 142.192 77.584 141.408 77.448L141.168 77.408A74.496 74.496 0 0 0 136.24 76.728L136.16 76.712C135.352 76.632 134.544 76.56 133.736 76.504L133.208 76.472A77.864 77.864 0 0 0 125.928 76.352L125.288 76.376A73.992 73.992 0 0 0 123.408 76.472L122.88 76.504A75.84 75.84 0 0 0 115.456 77.408L115.216 77.448A75.488 75.488 0 0 0 112.848 77.9039999999999L112.392 78.008A73.912 73.912 0 0 0 110.568 78.424L109.88 78.584A72.8 72.8 0 0 0 104.48 80.168L103.704 80.432C74.184 90.656 52.92 118.736 52.92 151.696C52.92 193.256 86.736 227.08 128.312 227.08C169.872 227.08 203.688 193.256 203.688 151.688C203.688 118.736 182.432 90.648 152.904 80.432zM128.304 125.256L152.512 110.616A5.816 5.816 0 0 1 161.208 116.912L154.792 144.448L176.2 163C180.104 166.384 178.008 172.8 172.872 173.208L144.696 175.6L133.672 201.616C131.688 206.336 124.92 206.336 122.936 201.616L111.912 175.656L83.736 173.264C78.608 172.864 76.504 166.44 80.416 163.056L101.824 144.504L95.408 116.976A5.816 5.816 0 0 1 104.096 110.672L128.304 125.256z" />
    <glyph glyph-name="000078-icDobleChek"
      unicode="&#xEA4E;"
      horiz-adv-x="256" d="M156.347 198.715C155.162 198.047 134.311 173.2 110.01 143.5C85.709 113.8 65.064 88.711 64.132 87.747C62.525 86.084 61.468 86.714 43.689 99.938C33.378 107.608 24.114 114.147 23.103 114.467C20.943 115.153 16.871 113.781 15.347 111.854C13.532 109.56 13.062 105.609 14.327 103.285C15.476 101.175 35.671 85.272 50.407 74.874C56.396 70.647 57.963 70 62.206 70C64.898 70 68.417 70.681 70.028 71.514C72.59 72.839 159.121 177.213 165.772 187C170.931 194.593 164.098 203.087 156.347 198.715M231.253 199.339C230.567 199.062 209.917 174.235 185.363 144.168C160.809 114.1 139.956 88.685 139.022 87.69C137.398 85.958 136.746 86.346 124.096 96.573C116.82 102.455 110.531 106.87 110.12 106.384C103.645 98.727 100.88 94.743 101.608 94.12C106.06 90.307 124.434 75.666 127.9 73.169C133.069 69.447 139.503 68.905 144.773 71.75C148.184 73.591 240.463 185.457 242.081 189.712C244.297 195.542 237.287 201.775 231.253 199.339" />
    <glyph glyph-name="000079-icDocumentos"
      unicode="&#xEA52;"
      horiz-adv-x="256" d="M84.632 234.664H171.36C180.816 234.664 188.96 234.664 195.488 233.784C202.48 232.848 209.184 230.728 214.616 225.296C220.056 219.856 222.176 213.152 223.12 206.16C224 199.64 224 191.488 223.992 182.032V95.248C223.992 80.808 223.992 68.896 222.728 59.464C221.392 49.568 218.488 40.824 211.496 33.832C204.496 26.832 195.76 23.928 185.856 22.6C176.432 21.336 164.52 21.336 150.08 21.336H105.904C91.464 21.336 79.552 21.336 70.128 22.6C60.224 23.928 51.488 26.832 44.488 33.832C37.488 40.832 34.592 49.568 33.256 59.464C32 68.896 32 80.8 32 95.248V181.328V182.032C32 191.488 32 199.632 32.88 206.16C33.816 213.152 35.936 219.856 41.376 225.296C46.816 230.736 53.512 232.848 60.496 233.792C67.024 234.672 75.176 234.672 84.632 234.672zM63.352 212.648C58.72 212.024 57.272 211.024 56.456 210.208C55.648 209.4 54.64 207.944 54.016 203.328C53.36 198.384 53.336 191.688 53.336 181.328V96C53.336 80.616 53.36 70.144 54.408 62.312C55.424 54.776 57.208 51.288 59.584 48.912C61.952 46.544 65.44 44.752 72.976 43.744C80.816 42.688 91.28 42.664 106.664 42.664H149.336C164.72 42.664 175.184 42.688 183.024 43.744C190.56 44.76 194.048 46.544 196.416 48.912C198.792 51.288 200.576 54.776 201.592 62.312C202.64 70.152 202.664 80.616 202.664 96V181.336C202.664 191.688 202.648 198.384 201.984 203.32C201.36 207.944 200.352 209.4 199.544 210.208C198.728 211.024 197.28 212.024 192.656 212.648C187.72 213.312 181.024 213.336 170.664 213.336H85.336C74.976 213.336 68.28 213.312 63.344 212.648zM149.336 32V64A10.664 10.664 0 1 0 170.664 64V32A10.664 10.664 0 0 0 149.336 32zM96 74.664C101.888 74.664 106.664 69.888 106.664 64V32A10.664 10.664 0 0 0 85.336 32V64C85.336 69.888 90.112 74.664 96 74.664zM85.336 170.664C85.336 176.56 90.112 181.336 96 181.336H160A10.664 10.664 0 1 0 160 160H96A10.664 10.664 0 0 0 85.336 170.664zM85.336 128C85.336 133.888 90.112 138.664 96 138.664H160A10.664 10.664 0 0 0 160 117.336H96A10.664 10.664 0 0 0 85.336 128z" />
    <glyph glyph-name="000080-icDolar"
      unicode="&#xEA4F;"
      horiz-adv-x="256" d="M128 234.664C69.12 234.664 21.336 186.88 21.336 128S69.12 21.336 128 21.336S234.664 69.12 234.664 128S186.88 234.664 128 234.664zM143.04 63.04V56.856C143.04 49.064 136.64 42.664 128.856 42.664H128.744C120.96 42.664 114.56 49.064 114.56 56.856V63.256C100.376 66.24 87.784 74.024 82.456 87.144C80 93.016 84.584 99.52 90.984 99.52H93.544C97.496 99.52 100.696 96.8560000000001 102.184 93.12C105.28 85.12 113.384 79.576 128.96 79.576C149.864 79.576 154.56 90.024 154.56 96.536C154.56 105.384 149.864 113.704 126.08 119.3600000000001C99.624 125.7600000000001 81.496 136.6400000000001 81.496 158.5040000000001C81.496 176.8560000000001 96.32 188.8000000000001 114.664 192.7440000000001V199.1440000000001C114.664 206.936 121.064 213.3360000000001 128.856 213.3360000000001H128.96C136.744 213.3360000000001 143.144 206.936 143.144 199.1440000000001V192.5360000000001C157.864 188.9040000000001 167.144 179.7360000000001 171.2 168.424C173.336 162.5600000000001 168.856 156.376 162.56 156.376H159.784C155.84 156.376 152.64 159.1440000000001 151.576 162.984C149.12 171.096 142.4 176.32 128.96 176.32C112.96 176.32 103.36 169.064 103.36 158.824C103.36 149.864 110.296 144 131.84 138.456C153.384 132.904 176.424 123.624 176.424 96.744C176.216 77.224 161.6 66.56 143.04 63.04z" />
    <glyph glyph-name="000081-icDown"
      unicode="&#xEA50;"
      horiz-adv-x="256" d="M117.336 202.664V83.52L65.28 135.576A10.752 10.752 0 0 1 50.136 135.576C45.976 131.416 45.976 124.696 50.136 120.536L120.424 50.24C124.584 46.08 131.304 46.08 135.464 50.24L205.76 120.536C209.92 124.696 209.92 131.416 205.76 135.576C201.6 139.736 194.88 139.736 190.72 135.576L138.664 83.52V202.664C138.664 208.536 133.864 213.336 128 213.336S117.336 208.536 117.336 202.664z" />
    <glyph glyph-name="000082-icDucha"
      unicode="&#xEA51;"
      horiz-adv-x="256" d="M96 74.664C96 68.8 91.2 64 85.336 64C79.464 64 74.664 68.8 74.664 74.664C74.664 80.536 79.464 85.336 85.336 85.336C91.2 85.336 96 80.536 96 74.664zM128 85.336C122.136 85.336 117.336 80.536 117.336 74.664C117.336 68.8 122.136 64 128 64S138.664 68.8 138.664 74.664C138.664 80.536 133.864 85.336 128 85.336zM170.664 85.336C164.8 85.336 160 80.536 160 74.664C160 68.8 164.8 64 170.664 64C176.536 64 181.336 68.8 181.336 74.664C181.336 80.536 176.536 85.336 170.664 85.336zM202.664 128V106.664H53.336V128C53.336 165.656 81.176 196.584 117.336 201.816V224H138.664V201.816C174.824 196.584 202.664 165.656 202.664 128zM181.336 128A53.352 53.352 0 0 1 128 181.336A53.36 53.36 0 0 1 74.664 128H181.336zM85.336 53.336C79.464 53.336 74.664 48.536 74.664 42.664C74.664 36.8 79.464 32 85.336 32C91.2 32 96 36.8 96 42.664C96 48.536 91.2 53.336 85.336 53.336zM128 53.336C122.136 53.336 117.336 48.536 117.336 42.664C117.336 36.8 122.136 32 128 32S138.664 36.8 138.664 42.664C138.664 48.536 133.864 53.336 128 53.336zM170.664 53.336C164.8 53.336 160 48.536 160 42.664C160 36.8 164.8 32 170.664 32C176.536 32 181.336 36.8 181.336 42.664C181.336 48.536 176.536 53.336 170.664 53.336z" />
    <glyph glyph-name="000083-icEditar"
      unicode="&#xEA53;"
      horiz-adv-x="256" d="M145.6 163.2C146.4 163.2 146.4 163.2 147.2 162.4L163.2 145.6S164 144.8 164 144S164 143.2 163.2 142.4L88 69.6L64.8 64.8L72 91.2L144 162.4C144.8 163.2 145.6 163.2 145.6 163.2M160.8 197.6C155.2 197.6 150.4 195.2 146.4 191.2L57.6 103.2C56 101.6 55.2 100 54.4 97.6L44 60C41.6 51.2 48 43.2 56.8 43.2H60L94.4 50.4C96.8 51.2 98.4 52 100.8 53.6L192 144.8C200 152.8 200 166.4 192 174.4L176 191.2C172 195.2 166.4 197.6 160.8 197.6z" />
    <glyph glyph-name="000084-icEmail"
      unicode="&#xEA54;"
      horiz-adv-x="256" d="M32 171.944V184A24 24 0 0 0 56 208H200A24 24 0 0 0 224 184V170.08L130.44 125.032A5.32 5.32 0 0 0 125.752 125.064L32 171.944zM32 148.056V80A24 24 0 0 1 56 56H200A24 24 0 0 1 224 80V146.368L139.704 105.784C132.264 102.2 123.584 102.264 116.2 105.96L32 148.056z" />
    <glyph glyph-name="000085-icEmailAbierto"
      unicode="&#xEA55;"
      horiz-adv-x="256" d="M217.12 175.616L146.64 227.056A25.6 25.6 0 0 1 116.4 227.056L42.48 173.216A25.76 25.76 0 0 1 32 152.496V54.336A25.6 25.6 0 0 1 57.6 28.736H202A25.6 25.6 0 0 1 227.6 54.336V155.376A25.6 25.6 0 0 1 217.12 175.616zM55.12 155.936L128.96 209.776A4.48 4.48 0 0 0 131.52 210.656A4.08 4.08 0 0 0 134 209.776L204.48 158.416A4.24 4.24 0 0 0 206.24 154.976V142.576L132 101.936A4.4 4.4 0 0 0 127.76 101.936L53.36 144.176V152.176A4.24 4.24 0 0 0 55.12 156.336V155.936zM202 50.096H57.6A4.24 4.24 0 0 0 53.36 54.336V119.616L117.36 83.376A26.08 26.08 0 0 1 130.08 80.016A25.6 25.6 0 0 1 142.48 83.216L206.48 118.256V54.256A4.24 4.24 0 0 0 202 50.496V50.096z" />
    <glyph glyph-name="000086-icEmailR"
      unicode="&#xEA56;"
      horiz-adv-x="256" d="M0 128C0 198.696 57.304 256 128 256S256 198.696 256 128S198.696 0 128 0S0 57.304 0 128zM202 200H58A17.976000000000003 17.976000000000003 0 0 1 40.088 182L40 74A18.056 18.056 0 0 1 58 56H202A18.056 18.056 0 0 1 220 74V182A18.056 18.056 0 0 1 202 200zM193 74H67A9.024 9.024 0 0 0 58 83V164L120.456 124.936A17.824 17.824 0 0 1 139.536 124.936L202 164V83C202 78.048 197.952 74 193 74zM130 137L58 182H202L130 137z" />
    <glyph glyph-name="000087-icEmailSent"
      unicode="&#xEA57;"
      horiz-adv-x="256" d="M228.8 176.8L164.8 223.2C153.6 231.2 137.6 231.2 126.4 222.4L63.2 174.4C60.8 175.2 57.6 175.2 55.2 175.2C28.8 175.2 8 153.6 8 128C8 104.8 24.8 85.6 46.4 81.6V61.6C46.4 44 60.8 29.6 78.4 29.6H209.6C227.2 29.6 241.6 44 241.6 61.6V150.4C241.6 160.8 236.8 170.4 228.8 176.8zM42.4 120.8V114.4C42.4 111.2 38.4 108.8 35.2 111.2L16.8 129.6C15.2 131.2 15.2 133.6 16.8 135.2L35.2 153.6C37.6 156 42.4 154.4 42.4 150.4V144C70.4 140 82.4 120 86.4 100C76.8 114.4 62.4 120.8 42.4 120.8zM220.8 61.6C220.8 55.2 216 50.4 209.6 50.4H78.4C72 50.4 67.2 55.2 67.2 61.6V82.4C79.2 85.6 88.8 92.8 95.2 103.2000000000001L130.4 84.0000000000001C134.4 81.6000000000001 139.2 80.8000000000001 144 80.8000000000001S153.6 81.6000000000001 157.6 84.0000000000001L220.8 118.4000000000001V61.6000000000001zM220.8 141.6L147.2 101.6C144.8 100 142.4 100 140 101.6L101.6 122.4V127.2000000000001C101.6 142.4 94.4 155.2000000000001 84 164.0000000000001L138.4 205.6000000000001C141.6 207.2000000000001 144 208.0000000000001 146.4 208.0000000000001C148.8000000000001 208.0000000000001 151.2000000000001 207.2000000000001 152.8000000000001 205.6000000000001L216.8000000000001 159.2000000000001C220 156.8000000000001 221.6000000000001 153.6000000000001 221.6000000000001 150.4V141.6000000000001z" />
    <glyph glyph-name="000088-icEmpresas"
      unicode="&#xEA58;"
      horiz-adv-x="256" d="M151.04 145.064L97.704 183.144A21.136 21.136 0 0 1 72.96 183.144L19.624 145.064A21.288 21.288 0 0 1 10.664 127.68V42.664C10.664 36.8 15.464 32 21.336 32H64V96H106.664V32H149.336C155.2 32 160 36.8 160 42.664V127.68C160 134.616 156.696 141.016 151.04 145.064zM224.32 224H127.68A20.984 20.984 0 0 1 106.664 202.984L107.624 202.024C108.48 201.496 109.336 201.064 110.184 200.536L163.52 162.456A42.912 42.912 0 0 0 179.944 138.664H202.664V117.336H181.336V96H202.664V74.664H181.336V32H224.32A20.984 20.984 0 0 1 245.336 53.016V202.984A20.984 20.984 0 0 1 224.32 224zM202.664 160H181.336V181.336H202.664V160z" />
    <glyph glyph-name="000089-icEnProceso"
      unicode="&#xEA59;"
      horiz-adv-x="256" d="M85.336 234.664A21.4 21.4 0 0 1 64 213.336V179.52C64 173.864 66.24 168.424 70.296 164.376L106.664 128L70.184 91.52A21.752 21.752 0 0 1 64 76.376V42.664C64 30.936 73.6 21.336 85.336 21.336H170.664C182.4 21.336 192 30.936 192 42.664V76.376C192 82.024 189.76 87.464 185.816 91.416L149.336 128L185.704 164.264A21.392 21.392 0 0 1 192 179.416V213.336C192 225.064 182.4 234.664 170.664 234.664H85.336zM170.664 80V53.336C170.664 47.464 165.864 42.664 160 42.664H96C90.136 42.664 85.336 47.464 85.336 53.336V80L128 122.664L170.664 80zM128 133.336L85.336 176V202.664C85.336 208.536 90.136 213.336 96 213.336H160C165.864 213.336 170.664 208.536 170.664 202.664V176L128 133.336z" />
    <glyph glyph-name="000090-icEnviado"
      unicode="&#xEA5A;"
      horiz-adv-x="256" d="M105.232 186.936L173.688 156.984C182.624 153.08 190.384 149.688 195.824 146.312C201.16 143.008 208.056 137.448 208.056 128C208.056 118.56 201.16 112.992 195.824 109.68C190.384 106.32 182.624 102.92 173.688 99.016L105.232 69.064C93.688 64.008 84.024 59.784 76.6 57.632C72.792 56.528 68.64 55.68 64.592 55.936C60.168 56.208 55.584 57.832 52.048 61.768C48.52 65.696 47.392 70.424 47.592 74.856C47.768 78.912 49.056 82.944 50.552 86.616C53.488 93.768 58.712 102.928 64.976 113.864L70.024 122.704C71.6 125.472 72.4 126.888 72.872 127.952L72.896 128L72.872 128.048A71.296 71.296 0 0 1 70.024 133.288L65.384 141.408L64.976 142.128C58.72 153.072 53.488 162.232 50.56 169.384C49.056 173.056 47.768 177.088 47.592 181.144C47.392 185.576 48.52 190.304 52.048 194.232C55.584 198.168 60.168 199.792 64.592 200.072C68.64 200.312 72.792 199.472 76.6 198.368C84.024 196.216 93.688 191.992 105.24 186.936zM70.08 178.04L70.312 177.464C72.632 171.784 77.144 163.848 83.912 151.992L88.552 143.88L88.744 143.552C90.056 141.248 91.392 138.912 92.344 136.784C93.448 134.336 94.392 131.44 94.392 128C94.392 124.56 93.448 121.664 92.352 119.216C91.392 117.088 90.056 114.752 88.744 112.448L88.552 112.128L83.912 104.008C77.144 92.152 72.632 84.224 70.312 78.536L70.072 77.96L70.68 78.12C76.584 79.832 84.944 83.472 97.456 88.944L164.392 118.224C174.296 122.56 180.616 125.352 184.6 127.824A27.680000000000003 27.680000000000003 0 0 1 184.88 128L184.592 128.176C180.616 130.648 174.296 133.44 164.392 137.776L97.456 167.056C84.944 172.528 76.576 176.168 70.68 177.872A41.888 41.888 0 0 1 70.08 178.04zM187.256 126.176S187.216 126.208 187.176 126.272L187.256 126.176zM187.176 129.728A0.41600000000000004 0.41600000000000004 0 0 0 187.256 129.824L187.176 129.728z" />
    <glyph glyph-name="000091-icEstrella"
      unicode="&#xEA5B;"
      horiz-adv-x="256" d="M127.792 203.528C125.256 199.112 122.432 192.12 118.104 181.336L117.528 179.904C115.312 174.384 113.368 169.52 111.312 165.624C109.096 161.408 106.384 157.544 102.232 154.456C98.088 151.368 93.592 149.88 88.92 148.976C84.6 148.136 79.376 147.672 73.456 147.136L70.672 146.896C59.936 145.936 53.088 145.288 48.544 144.216A21.896 21.896 0 0 1 48.224 144.136L48.432 143.88C51.4 140.28 56.472 135.632 64.448 128.376L69.888 123.416C73.536 120.104 76.76 117.176 79.248 114.48C81.952 111.56 84.304 108.4 85.872 104.392A32 32 0 0 0 87.136 100.392C88.168 96.224 88.064 92.272 87.544 88.336C87.064 84.696 86.12 80.44 85.048 75.632L84.248 72.032C82.088 62.312 80.68 55.8799999999999 80.168 51.344L80.088 50.536L80.776 50.968C84.6 53.464 89.712 57.608 97.432 63.904L97.792 64.192C102.416 67.968 106.448 71.256 110.048 73.656C113.896 76.232 118.016 78.344 122.952 79.128A31.951999999999998 31.951999999999998 0 0 0 133.048 79.128C137.984 78.344 142.104 76.232 145.952 73.656C149.552 71.256 153.584 67.968 158.208 64.192L158.568 63.904C166.288 57.608 171.4 53.464 175.224 50.968L175.912 50.536A33.672 33.672 0 0 1 175.832 51.336C175.32 55.88 173.912 62.312 171.752 72.032L170.952 75.632C169.88 80.44 168.936 84.696 168.456 88.336C167.936 92.272 167.832 96.224 168.856 100.4A32 32 0 0 0 170.136 104.392C171.696 108.392 174.056 111.56 176.744 114.472C179.24 117.176 182.464 120.104 186.104 123.424L191.552 128.376C199.528 135.632 204.592 140.28 207.568 143.88L207.776 144.136A21.992 21.992 0 0 1 207.456 144.216C202.912 145.288 196.064 145.928 185.328 146.888L182.544 147.136C176.624 147.672 171.4 148.136 167.08 148.976C162.4 149.88 157.912 151.376 153.768 154.456C149.616 157.536 146.904 161.408 144.688 165.624C142.64 169.52 140.688 174.384 138.472 179.904L137.896 181.336C133.576 192.12 130.744 199.112 128.208 203.528A30.744 30.744 0 0 1 128 203.888A50.16 50.16 0 0 1 127.792 203.528zM129.952 206.592S129.92 206.552 129.848 206.512L129.952 206.592zM126.152 206.512A0.472 0.472 0 0 0 126.048 206.592L126.152 206.512zM210.592 143.168S210.552 143.184 210.496 143.232L210.592 143.168zM209.392 146.496A0.41600000000000004 0.41600000000000004 0 0 0 209.432 146.608S209.432 146.576 209.392 146.496zM46.568 146.608L46.608 146.496A0.384 0.384 0 0 0 46.568 146.608zM45.504 143.232A0.408 0.408 0 0 0 45.408 143.168L45.504 143.232zM109.288 214.144C112.504 219.752 118.096 227.344 128 227.344S143.496 219.752 146.712 214.144C150.088 208.264 153.464 199.848 157.392 190.048L158.088 188.304C160.544 182.192 162.088 178.36 163.568 175.552C164.928 172.96 165.808 172.08 166.496 171.576C167.176 171.072 168.28 170.472 171.144 169.92C174.264 169.312 178.376 168.928 184.936 168.344L188.056 168.064C197.72 167.2 206.136 166.448 212.352 164.976C218.456 163.536 226.736 160.456 229.744 151.528C232.744 142.592 228.008 135.128 224.016 130.296C219.952 125.368 213.696 119.688 206.52 113.152L200.76 107.92C196.728 104.24 194.2 101.936 192.416 100C190.752 98.2 190.256 97.272 190 96.624C189.832 96.192 189.688 95.744 189.576 95.296C189.416 94.616 189.28 93.568 189.608 91.136C189.952 88.528 190.68 85.184 191.864 79.856L192.712 76.032C194.696 67.096 196.376 59.552 197.032 53.736C197.616 48.512 198.008 40.616 192.728 34.744A21.328 21.328 0 0 0 182.472 28.424C174.856 26.344 167.976 30.232 163.576 33.104C158.68 36.2960000000001 152.68 41.1840000000001 145.584 46.96L145.096 47.36C140 51.512 136.752 54.144 134.096 55.92C131.592 57.6000000000001 130.416 57.9520000000001 129.68 58.0640000000001A10.64 10.64 0 0 1 126.32 58.0640000000001C125.592 57.9520000000001 124.408 57.6000000000001 121.912 55.9280000000001C119.248 54.1440000000001 115.992 51.5120000000001 110.904 47.3680000000001L110.416 46.968C103.32 41.1840000000001 97.32 36.2960000000001 92.424 33.104C88.024 30.224 81.144 26.336 73.528 28.4160000000001A21.328 21.328 0 0 0 63.272 34.736C57.992 40.616 58.384 48.5120000000001 58.976 53.736C59.632 59.544 61.304 67.0960000000001 63.288 76.032L64.136 79.8560000000001C65.32 85.1840000000001 66.056 88.5280000000001 66.392 91.1360000000001C66.712 93.5600000000001 66.592 94.616 66.424 95.2960000000001A10.656 10.656 0 0 1 66 96.6240000000001C65.752 97.264 65.248 98.2000000000001 63.584 100.0000000000001C61.792 101.9360000000001 59.264 104.2400000000001 55.24 107.9200000000001L50.088 112.6000000000001L49.48 113.1520000000001C42.296 119.6880000000001 36.048 125.3680000000001 31.984 130.2960000000001C27.984 135.1280000000001 23.256 142.5920000000001 26.256 151.5200000000001C29.264 160.4560000000001 37.544 163.5440000000001 43.648 164.9760000000001C49.864 166.448 58.28 167.2000000000001 67.952 168.0640000000001L68.768 168.1440000000001L71.064 168.3440000000001C77.624 168.9280000000001 81.744 169.3120000000001 84.856 169.9200000000001C87.728 170.4800000000001 88.824 171.0640000000001 89.504 171.5760000000001C90.184 172.0800000000001 91.072 172.96 92.432 175.5520000000001C93.904 178.352 95.456 182.1920000000001 97.912 188.304L98.304 189.28L98.608 190.0480000000001C102.544 199.8480000000001 105.912 208.2640000000001 109.288 214.1440000000001z" />
    <glyph glyph-name="000092-icEtiquetaMail"
      unicode="&#xEA5C;"
      horiz-adv-x="256" d="M188.056 193.704A21.264 21.264 0 0 1 170.664 202.664L53.336 202.56A21.303999999999995 21.303999999999995 0 0 1 32 181.336V74.664C32 62.936 41.6 53.44 53.336 53.44L170.664 53.336C177.816 53.336 184.216 56.856 188.056 62.296L234.664 128L188.056 193.704zM170.664 74.664H53.336V181.336H170.664L208.536 128L170.664 74.664z" />
    <glyph glyph-name="000093-icExpand"
      unicode="&#xEA5D;"
      horiz-adv-x="256" d="M224 32H149.336V53.336H187.576L152.456 88.456A10.664 10.664 0 1 0 167.544 103.544L202.664 68.424V106.664H224V32zM106.664 32H32V106.664H53.336V68.424L88.456 103.544A10.664 10.664 0 1 0 103.544 88.456L68.424 53.336H106.664V32zM224 149.336H202.664V187.576L167.544 152.456A10.664 10.664 0 1 0 152.456 167.544L187.576 202.664H149.336V224H224V149.336zM53.336 187.584V149.336H32V224H106.664V202.664H68.424L103.544 167.544A10.664 10.664 0 1 0 88.456 152.456L53.336 187.576z" />
    <glyph glyph-name="000094-icExpandM"
      unicode="&#xEA5E;"
      horiz-adv-x="256" d="M193.816 128L167.576 101.76C163.416 97.6 163.416 90.88 167.576 86.72C171.736 82.56 178.456 82.56 182.616 86.72L216.536 120.536C220.696 124.696 220.696 131.416 216.536 135.576L182.616 169.384C178.456 173.544 171.736 173.544 167.576 169.384C163.416 165.224 163.416 158.504 167.576 154.344L193.816 128zM62.184 128L88.424 154.24C92.584 158.4 92.584 165.12 88.424 169.28C84.264 173.44 77.544 173.44 73.384 169.28L39.464 135.464C35.304 131.304 35.304 124.584 39.464 120.424L73.28 86.616C77.44 82.456 84.16 82.456 88.32 86.616C92.48 90.776 92.48 97.496 88.32 101.656L62.184 128z" />
    <glyph glyph-name="000095-icFacebookR"
      unicode="&#xEA5F;"
      horiz-adv-x="256" d="M128 234.664C69.088 234.664 21.336 186.912 21.336 128C21.336 70.456 66.936 23.68 123.96 21.536V95.584H98.96V124.648H123.952V146.04C123.952 170.824 139.104 184.344 161.232 184.344C168.688 184.36 176.128 183.976 183.544 183.224V157.304H168.32C156.264 157.304 153.92 151.608 153.92 143.2V124.696H182.72L178.976 95.624H153.752V24.6C200.192 36.128 234.664 77.984 234.664 128C234.664 186.912 186.912 234.664 128 234.664z" />
    <glyph glyph-name="000096-icFacturas"
      unicode="&#xEA60;"
      horiz-adv-x="256" d="M196 234.4H56.8C37.6 235.2 21.6 219.2 21.6 200V16.8L64 32.8L96 20L128 31.2L169.6 18.4L168.8 150.4H220.8C228.8 150.4 235.2 156.8 235.2 164.8V190.4C235.2 213.6 217.6 232.8 196 234.4zM149.6 151.2L150.4 45.6L128 52L96 40.8L64 53.6L40.8 44.8V200C40.8 208.8 48 216 56.8 216H156.8C152 208.8 149.6 200.8 149.6 192V151.2zM216 170.4H168V192C168 198.4 171.2 204.8 176 209.6C180.8 214.4 187.2 216 194.4 216C206.4 214.4 216 203.2 216 190.4V170.4zM116.8 192H75.2C68.8 192 64 187.2 64 180.8S68.8 169.6 75.2 169.6H117.6C124 169.6 128.8 174.4 128.8 180.8S123.2 192 116.8 192zM106.4 107.2H75.2C68.8 107.2 64 102.4 64 96C64 89.6 68.8 84.8 75.2 84.8H106.4C112.8 84.8 117.6 89.6 117.6 96C117.6 102.4 112.8 107.2 106.4 107.2zM75.2 128H85.6C92 128 96.8 132.8 96.8 139.2C96.8 145.6 92 150.4 85.6 150.4H75.2C68.8 150.4 64 145.6 64 139.2C64 132.8 68.8 128 75.2 128z" />
    <glyph glyph-name="000097-icFeatured"
      unicode="&#xEA61;"
      horiz-adv-x="256" d="M200.144 196.68H148.848V203.52A18 18 0 0 1 130.608 221.76H61.64V225.184C61.64 233.16 54.8 240 46.816 240C38.84 240 32 233.16 32 225.184V30.816C32 22.84 38.84 16 46.816 16C54.8 16 61.64 22.84 61.64 30.816V116.888H108.944V110.048A18 18 0 0 1 127.184 91.808H200.144C210.4 91.808 218.384 100.36 218.384 110.048V178.448C218.384 188.704 209.832 196.688 200.144 196.688zM61.64 115.744H107.24V109.472C107.24 99.792 114.648 91.808 124.336 91.808H193.872A17.76 17.76 0 0 1 211.544 109.48V173.88C211.544 183.576 203.56 190.984 193.872 190.984H144.856V197.248C144.856 206.944 137.448 214.352 127.76 214.352H61.64V214.92V115.744z" />
    <glyph glyph-name="000098-icFeaturedW"
      unicode="&#xEA62;"
      horiz-adv-x="256" d="M200.144 196.68H148.848V203.52A18 18 0 0 1 130.608 221.76H61.64V225.184C61.64 233.16 54.8 240 46.816 240C38.84 240 32 233.16 32 225.184V30.816C32 22.84 38.84 16 46.816 16C54.8 16 61.64 22.84 61.64 30.816V116.888H108.944V110.048A18 18 0 0 1 127.184 91.808H200.144C210.4 91.808 218.384 100.36 218.384 110.048V178.448C218.384 188.704 209.832 196.688 200.144 196.688zM200.144 122.016C200.144 115.744 195.016 109.48 187.6 109.48H134.024C127.184 109.48 126.616 119.16 126.616 126.008V135.688H61.64V201.248H123.192C130.04 201.248 130.608 196.12 130.608 188.712V177.312H188.176C194.44 177.312 200.712 172.184 200.712 164.768V122.024H200.144z" />
    </font>
</defs>
</svg>
